<svg width="159" height="55" viewBox="0 0 159 55" fill="none" xmlns="http://www.w3.org/2000/svg">
<path d="M135.515 22.6324H140.155L135.468 27.3209H130.827L135.515 22.6324ZM129.259 22.6324H133.9L129.212 27.3209H124.572L129.259 22.6324ZM145.867 22.6324H141.227L145.906 27.3209H150.547L145.867 22.6324ZM152.13 22.6324H147.49L152.17 27.3209H156.81L152.13 22.6324ZM149.286 9.62618C150.09 7.46107 150.649 4.15889 150.767 1.85359L159 3.87852C158.338 13.4268 151.098 21.7913 140.352 21.7913C128.196 21.7835 123.493 11.3396 124.131 3.41901L127.7 2.29752C127.117 6.80686 128.527 10.0545 129.504 11.5421C128.346 5.16356 133.214 0.00779964 139.304 1.14778e-05C144.772 -0.00777668 149.302 3.94861 149.286 9.62618ZM132.726 9.82867C132.726 13.4268 135.672 16.3396 139.312 16.3396C142.952 16.3396 145.898 13.4268 145.898 9.82867C145.898 6.23054 142.952 3.31777 139.312 3.31777C135.672 3.31777 132.726 6.23054 132.726 9.82867ZM3.67137 7.23521H0.165527V21.7212H3.20655C7.99656 21.7212 10.4704 18.8941 10.4704 14.3536C10.4704 11.1994 9.29648 9.26792 7.69719 8.24767C6.73604 7.63241 5.49914 7.23521 3.67137 7.23521ZM3.4429 9.04207C6.75967 9.04207 8.08323 11.2617 8.08323 14.3536C8.08323 17.796 6.57059 19.9143 3.4429 19.9143H2.43448V9.04207H3.4429ZM20.531 17.0171V16.2928C20.531 12.5545 18.8765 10.9346 16.4973 10.9346C13.7871 10.9346 12.1957 13.2165 12.1957 16.4798C12.1957 19.595 13.7083 21.877 16.8597 21.877C18.1832 21.877 19.2704 21.5421 19.9637 21.2305L19.8613 19.4237C19.3177 19.8209 18.459 20.2726 17.2142 20.2726C15.221 20.2726 14.378 19.1511 14.378 17.0094L20.531 17.0171ZM18.3881 15.5374H14.378C14.4016 13.5904 15.1973 12.4689 16.4342 12.4689C17.7342 12.4689 18.3881 13.5047 18.3881 15.5374ZM30.6467 21.729C30.6073 21.1059 30.56 20.3972 30.56 19.6963V11.0748H28.3777V17.3209C28.3777 18.9642 27.7475 20.0623 26.3609 20.0623C25.2501 20.0623 24.6986 19.3536 24.6986 17.6947V11.0748H22.5163V18.1932C22.5163 20.4361 23.5011 21.8692 25.6676 21.8692C27.1409 21.8692 27.9366 21.0981 28.4644 20.1013H28.5038C28.5038 20.4128 28.5826 21.4486 28.5826 21.7212L30.6467 21.729ZM38.2729 21.5576V19.9377C37.9972 20.0623 37.6663 20.1869 37.2251 20.1869C36.4451 20.1869 36.0906 19.7897 36.0906 18.6293V12.7337H38.2729V11.0748H36.0906V8.25546L33.9083 8.89409V11.0748H32.183V12.7337H33.9083V19.0732C33.9083 21.1293 34.8931 21.877 36.6578 21.877C37.2881 21.8692 37.8711 21.729 38.2729 21.5576ZM46.0409 18.6527C46.0409 17.3676 45.261 16.6823 43.961 15.9502L43.0156 15.4284C42.0702 14.9066 41.503 14.5561 41.503 13.8474C41.503 13.0997 42.023 12.6013 43.1181 12.6013C44.0004 12.6013 44.7331 12.8115 45.324 13.0608L45.4264 11.3162C44.9852 11.1449 44.0792 10.919 42.9447 10.919C40.7624 10.919 39.3522 12.3676 39.3522 13.972C39.3522 15.4907 40.211 16.1916 41.5345 16.838L42.669 17.3988C43.638 17.8738 43.9295 18.3567 43.9295 18.9175C43.9295 19.743 43.1968 20.1869 42.0624 20.1869C41.0146 20.1869 40.0692 19.7508 39.4546 19.4393L39.3286 21.3084C39.9982 21.6199 41.0697 21.8692 42.2908 21.8692C44.7174 21.8692 46.0409 20.5452 46.0409 18.6527ZM54.9198 21.433L54.7937 19.6028C54.3131 19.8754 53.5332 20.1402 52.8005 20.1402C50.9333 20.1402 49.8619 18.6916 49.8619 16.4642C49.8619 13.8863 50.9097 12.648 52.7611 12.648C53.5411 12.648 54.1713 12.8738 54.6913 13.1464L54.7937 11.3396C54.2659 11.1137 53.3914 10.9268 52.6114 10.9268C49.2947 10.9268 47.5929 13.2087 47.5929 16.4486C47.5929 19.4548 49.1292 21.8692 52.509 21.8692C53.4308 21.8692 54.3525 21.6667 54.9198 21.433ZM64.6258 21.729V14.6106C64.6258 12.3676 63.641 10.9346 61.4745 10.9346C60.0485 10.9346 59.2686 11.7212 58.8116 12.4922H58.7723V6.16045H56.59V21.729H58.7723V15.4206C58.7723 13.7773 59.4655 12.7414 60.8285 12.7414C61.9393 12.7414 62.4435 13.4502 62.4435 15.109V21.729H64.6258ZM75.0173 17.0171V16.2928C75.0173 12.5545 73.355 10.9346 70.9836 10.9346C68.2735 10.9346 66.6821 13.2165 66.6821 16.4798C66.6821 19.595 68.1947 21.877 71.346 21.877C72.6696 21.877 73.7568 21.5421 74.458 21.2305L74.3555 19.4237C73.8119 19.8209 72.9532 20.2726 71.7084 20.2726C69.7152 20.2726 68.8722 19.1511 68.8722 17.0094L75.0173 17.0171ZM72.8744 15.5374H68.8644C68.8801 13.5904 69.6837 12.4689 70.9206 12.4689C72.2284 12.4689 72.8744 13.5047 72.8744 15.5374ZM90.4509 11.4953C90.4509 10.1636 90.0491 9.10437 89.2928 8.38007C88.5129 7.63241 87.4887 7.23521 85.9918 7.23521H82.1314V21.7212H84.4004V15.8489H85.7633C88.8359 15.8489 90.4509 14.2757 90.4509 11.4953ZM85.4324 9.00313C87.213 9.00313 88.1426 9.78973 88.1426 11.5732C88.1426 13.1698 87.3626 14.0888 85.4088 14.0888H84.4004V9.00313H85.4324ZM100.22 16.3941C100.22 12.5545 98.2032 10.9346 95.6821 10.9346C93.1611 10.9346 91.1442 12.5545 91.1442 16.3941C91.1442 20.296 93.1611 21.877 95.6821 21.877C98.2032 21.8692 100.22 20.296 100.22 16.3941ZM97.9511 16.3941C97.9511 18.6137 97.3602 20.257 95.6821 20.257C94.004 20.257 93.4132 18.6137 93.4132 16.3941C93.4132 14.1745 94.004 12.5545 95.6821 12.5545C97.3602 12.5545 97.9511 14.1745 97.9511 16.3941ZM108.469 18.6527C108.469 17.3676 107.689 16.6823 106.389 15.9502L105.443 15.4284C104.498 14.9066 103.931 14.5561 103.931 13.8474C103.931 13.0997 104.459 12.6013 105.546 12.6013C106.428 12.6013 107.161 12.8115 107.752 13.0608L107.854 11.3162C107.413 11.1449 106.507 10.919 105.38 10.919C103.198 10.919 101.788 12.3676 101.788 13.972C101.788 15.4907 102.647 16.1916 103.97 16.838L105.105 17.3988C106.074 17.8738 106.365 18.3567 106.365 18.9175C106.365 19.743 105.632 20.1869 104.498 20.1869C103.45 20.1869 102.505 19.7508 101.898 19.4393L101.772 21.3084C102.442 21.6199 103.513 21.8692 104.734 21.8692C107.145 21.8692 108.469 20.5452 108.469 18.6527ZM115.354 21.5576V19.9377C115.079 20.0623 114.748 20.1869 114.306 20.1869C113.526 20.1869 113.172 19.7897 113.172 18.6293V12.7337H115.354V11.0748H113.172V8.25546L110.99 8.89409V11.0748H109.272V12.7337H110.99V19.0732C110.99 21.1293 111.974 21.877 113.739 21.877C114.369 21.8692 114.952 21.729 115.354 21.5576Z" fill="#B7B8B9"/>
<path d="M51.2641 41.0358C50.5709 41.9626 49.4049 43.5826 48.6958 44.5249C48.3334 45.0078 47.6874 45.8801 49.8382 45.8801H61.1593C61.1593 45.8801 62.9871 43.4268 64.5155 41.3707C66.5953 38.5748 64.6967 32.7726 57.2595 32.7726H27.9601L22.8786 39.595H50.563C51.9653 39.595 51.9496 40.1246 51.2641 41.0358ZM42.9447 47.5623C40.7939 47.5623 41.4399 46.69 41.8023 46.2072C42.5113 45.2648 43.6931 43.6604 44.3864 42.7336C45.0718 41.8146 45.0876 41.2928 43.6852 41.2928H31.0327L20.8302 55H45.7099C53.927 55 58.5043 49.4782 59.9145 47.5623H42.9447ZM59.1346 55H73.7331L79.2636 47.5623H64.673C64.6651 47.5623 59.1346 55 59.1346 55ZM96.7929 32.7726L91.1914 40.2882H84.676L90.2696 32.7726H75.6869L65.9257 45.8801H101.622L111.384 32.7726H96.7929ZM80.2406 55H94.8312L100.37 47.5623H85.779C85.7711 47.5623 80.2406 55 80.2406 55ZM0 50.4984V52.0794H20.326L21.4999 50.4984H0ZM23.6901 47.5623H0V49.1433H22.5083L23.6901 47.5623ZM0 55H18.1516L19.3176 53.4268H0V55ZM137.579 52.0794H159V50.4984H138.753L137.579 52.0794ZM135.404 55H159V53.4268H136.57L135.404 55ZM140.935 47.5623L139.761 49.1433H159V47.5623H140.935ZM121.83 45.8801L131.591 32.7726H116.134C116.126 32.7726 106.365 45.8801 106.365 45.8801H121.83ZM105.112 47.5623C105.112 47.5623 104.049 49.0031 103.529 49.6963C101.693 52.1417 103.316 55 109.296 55H132.726L138.264 47.5623H105.112Z" fill="#B7B8B9"/>
</svg>
