<svg width="187" height="41" viewBox="0 0 187 41" fill="none" xmlns="http://www.w3.org/2000/svg">
<g clip-path="url(#clip0_6025_362)">
<path fill-rule="evenodd" clip-rule="evenodd" d="M0 18.7682H8.29905V26.9623H0V18.7682ZM24.8922 18.7682H33.1912V26.9623H24.8922V18.7682ZM49.7843 18.7682H58.0824V26.9623H49.7843V18.7682Z" fill="#B7B8B9"/>
<path fill-rule="evenodd" clip-rule="evenodd" d="M69.7618 31.9356C69.7618 37.3795 70.7103 38.2568 76.6375 38.316V40.5984H56.483V38.316C62.4122 38.2568 63.3588 37.3796 63.3588 31.9356V2.03173C56.542 2.14912 52.5699 6.59648 51.9772 14.7304L49.7842 14.3811L50.2 0.101685H82.9214L83.3361 14.3811L81.1421 14.7304C80.5506 6.59747 76.5195 2.14912 69.7618 2.03173V31.9356Z" fill="#B7B8B9"/>
<path fill-rule="evenodd" clip-rule="evenodd" d="M74.9722 18.7682H83.2712V26.9623H74.9722V18.7682ZM99.6414 3.42604C99.6414 2.1255 99.5635 1.65082 99.2607 1.34992C99.0318 1.12396 98.501 0.975901 97.9193 0.975901H97.5894V0.174684H103.591C106.376 0.174684 108.326 0.975901 109.822 2.75013C111.112 4.27564 111.798 6.22554 111.798 8.47536C111.798 11.0518 110.935 13.276 109.34 14.8025C107.922 16.2017 106.048 16.851 103.591 16.851H97.5894V16.0517H97.9193C98.5009 16.0517 99.0317 15.9008 99.2607 15.6768C99.5635 15.3748 99.6414 14.9012 99.6414 13.6007V3.42604ZM101.971 13.7012C101.971 15.6017 102.276 15.953 104.046 15.953C107.695 15.953 109.089 13.9025 109.089 8.47528C109.089 3.20007 107.645 1.04985 104.099 1.04985C103.161 1.04985 102.58 1.22454 102.276 1.54918C102.022 1.84917 101.971 2.14916 101.971 3.2L101.971 13.7012ZM115.822 11.0251C115.845 14.6761 116.708 16.2283 118.707 16.2283C120.076 16.2283 120.962 15.502 121.847 13.6519L122.609 14.0515C121.521 16.2283 120.202 17.2032 118.304 17.2032C115.366 17.2032 113.466 14.8025 113.466 11.0251C113.466 7.52601 115.391 5.00093 118.048 5.00093C120.81 5.00093 122.633 7.32477 122.76 11.0251H115.822ZM120.404 10.1508C120.429 7.47671 119.593 5.87617 118.176 5.87617C116.758 5.87617 115.872 7.527 115.845 10.1508H120.404ZM132.406 14.2775C131.547 16.2293 130.382 17.1026 128.736 17.1026C127.621 17.1026 126.76 16.6783 126.278 15.877C125.796 15.0778 125.645 14.3022 125.645 12.4264V8.12705C125.645 6.47623 125.416 6.12686 124.353 6.12686H124.076V5.35121L127.773 5.17653V13.0766C127.773 14.1531 127.849 14.6514 128.078 15.128C128.279 15.6283 128.787 15.954 129.343 15.954C130.202 15.954 131.014 15.4034 131.547 14.4018C132.027 13.5532 132.205 12.6533 132.205 11.2274V8.12698C132.205 6.47615 131.976 6.12679 130.914 6.12679H130.532V5.35121L134.333 5.17653V14.0525C134.333 15.7013 134.56 16.0783 135.625 16.0783H135.902V16.8529L132.406 17.0285V14.2775ZM140.509 13.1269C140.509 14.1532 140.56 14.6021 140.689 15.0787C140.865 15.6787 141.347 16.0536 141.926 16.0536C142.889 16.0536 143.473 15.0293 143.473 13.2512V12.9029H144.308V13.3766C144.308 15.8268 143.293 17.1017 141.294 17.1017C140.331 17.1017 139.546 16.8007 139.092 16.2511C138.535 15.6018 138.383 14.8765 138.383 13.126V6.20081H136.558V5.50018C138.762 4.97521 139.495 3.97466 139.8 1.02421H140.509V5.34923H143.929V6.19983H140.509V13.1269ZM152.591 8.97757H151.83C151.4 6.85207 150.437 5.82687 148.866 5.82687C147.777 5.82687 146.969 6.57681 146.969 7.57637C146.969 8.52565 147.475 8.97757 149.072 9.47788C150.69 10.0019 151.376 10.3018 151.934 10.7281C152.843 11.4278 153.275 12.303 153.275 13.4269C153.275 15.5771 151.706 17.1026 149.474 17.1026C148.462 17.1026 147.878 16.9013 146.639 16.177C146.556 16.1223 146.461 16.088 146.362 16.0773C146.182 16.0773 146.032 16.251 145.93 16.5766L145.854 16.852H145.146V12.6277H145.854C146.182 13.8009 146.436 14.4285 146.84 14.9515C147.475 15.8021 148.435 16.3014 149.474 16.3014C150.639 16.3014 151.502 15.4272 151.502 14.2776C151.502 13.5533 151.121 12.903 150.463 12.5014C149.904 12.1521 149.879 12.1521 148.235 11.6015C146.207 10.9512 145.27 9.87762 145.27 8.25046C145.27 6.4003 146.662 5.10067 148.69 5.10067C149.501 5.10067 150.359 5.3503 151.07 5.77559C151.222 5.85061 151.347 5.90189 151.451 5.90189C151.602 5.90189 151.753 5.70058 151.829 5.35129H152.591V8.97757H152.591ZM163.705 13.9271C162.793 16.177 161.503 17.2032 159.553 17.2032C156.64 17.2032 154.639 14.7038 154.639 11.0527C154.639 7.50136 156.767 5.00184 159.805 5.00184C161.908 5.00184 163.553 6.4267 163.553 8.22855C163.553 9.15218 162.944 9.80344 162.111 9.80344C161.377 9.80344 160.82 9.22621 160.82 8.45154C160.82 7.75288 161.326 7.17664 162.009 7.17664C162.111 7.17664 162.161 7.17664 162.263 7.25067C161.884 6.37542 161.048 5.87511 160.034 5.87511C158.084 5.87511 157.096 7.59996 157.096 11.0516C157.096 14.5764 158.035 16.2509 159.958 16.2509C161.225 16.2509 162.187 15.4033 162.896 13.6014L163.705 13.9271ZM172.797 9.40089C172.797 7.95229 172.723 7.37506 172.418 6.9261C172.139 6.42678 171.684 6.17616 171.15 6.17616C170.315 6.17616 169.53 6.72677 169.049 7.67703C168.593 8.60264 168.415 9.57656 168.415 11.3004V14.0515C168.415 15.7281 168.644 16.0774 169.707 16.0774H170.111V16.852H164.591V16.0774H164.996C166.06 16.0774 166.287 15.7014 166.287 14.0515V2.95045C166.287 1.30062 166.06 0.95125 164.996 0.95125H164.717V0.174684L168.415 0V7.42444C169.225 5.80024 170.213 5.1006 171.683 5.1006C172.747 5.1006 173.608 5.47553 174.116 6.17518C174.747 7.04943 174.925 7.85072 174.925 10.0255V14.0515C174.925 15.7281 175.154 16.0774 176.217 16.0774H176.494V16.852H172.797V9.40089ZM180.059 11.0251C180.086 14.6761 180.946 16.2283 182.949 16.2283C184.315 16.2283 185.202 15.502 186.09 13.6519L186.848 14.0515C185.76 16.2283 184.443 17.2032 182.543 17.2032C179.605 17.2032 177.705 14.8025 177.705 11.0251C177.705 7.52601 179.63 5.00093 182.291 5.00093C185.052 5.00093 186.875 7.32477 187 11.0251H180.059ZM184.644 10.1508C184.667 7.47671 183.833 5.87617 182.415 5.87617C180.997 5.87617 180.109 7.527 180.086 10.1508H184.644ZM104.858 37.4003C104.858 38.7245 104.934 39.1765 105.239 39.4744C105.491 39.7004 105.998 39.8493 106.578 39.8493H107.164V40.6496H100.226V39.8493H100.806C101.389 39.8493 101.893 39.7004 102.151 39.4744C102.452 39.1764 102.53 38.7245 102.53 37.4003V24.7737H101.997C100.504 24.7737 99.2875 25.5729 98.7058 26.9485C98.376 27.6984 98.2241 28.4493 98.097 29.7992L97.3634 29.749L97.4903 23.9724H109.976L110.076 29.749L109.319 29.7992C108.837 26.1482 107.696 24.7737 105.241 24.7737H104.86V37.4003H104.858ZM113.616 34.8258C113.639 38.4748 114.502 40.0251 116.501 40.0251C117.87 40.0251 118.756 39.3008 119.643 37.4516L120.403 37.8493C119.313 40.0251 117.996 41 116.098 41C113.16 41 111.258 38.5983 111.258 34.8258C111.258 31.3238 113.183 28.8007 115.842 28.8007C118.602 28.8007 120.425 31.1245 120.554 34.8258H113.616ZM118.2 33.9496C118.223 31.2745 117.386 29.6729 115.969 29.6729C114.551 29.6729 113.665 31.3238 113.64 33.9496H118.2ZM125.616 37.8482C125.616 39.5238 125.845 39.8751 126.908 39.8751H127.314V40.6487H121.792V39.8751H122.198C123.259 39.8751 123.488 39.5248 123.488 37.8482V26.7492C123.488 25.0994 123.259 24.75 122.198 24.75H121.921V23.9734L125.616 23.7977V37.8482ZM130.858 34.8258C130.883 38.4748 131.744 40.0251 133.743 40.0251C135.112 40.0251 136 39.3008 136.887 37.4516L137.646 37.8493C136.557 40.0251 135.24 41 133.339 41C130.402 41 128.504 38.5983 128.504 34.8258C128.504 31.3238 130.429 28.8007 133.086 28.8007C135.846 28.8007 137.671 31.1245 137.796 34.8258H130.858ZM135.441 33.9496C135.466 31.2745 134.631 29.6729 133.213 29.6729C131.795 29.6729 130.907 31.3238 130.884 33.9496H135.441ZM147.52 40.6487L143.873 34.8486L142.86 35.7248V37.8483C142.86 39.5239 143.087 39.8751 144.15 39.8751H144.632V40.6487H139.035V39.8751H139.441C140.504 39.8751 140.731 39.5011 140.731 37.8483V26.7492C140.731 25.0994 140.504 24.75 139.441 24.75H139.162V23.9734L142.859 23.7977V34.5238L146.279 31.6247C146.734 31.225 147.013 30.7987 147.013 30.4741C147.013 30.0992 146.683 29.9235 145.921 29.9235H145.543V29.1489H150.532V29.9235H150.278C149.545 29.9235 149.215 30.0992 148.175 31.0237L145.392 33.4738L148.452 38.3001C149.214 39.501 149.696 39.875 150.506 39.875H150.707V40.6486L147.52 40.6487ZM162.054 34.8989C162.054 38.5489 160.002 41 156.911 41C153.849 41 151.797 38.5499 151.797 34.9255C151.797 31.1995 153.849 28.8007 156.987 28.8007C160.002 28.7997 162.054 31.2745 162.054 34.8989ZM154.834 31.0978C154.43 31.9977 154.252 33.1739 154.252 34.8485C154.252 38.4492 155.113 40.1997 156.911 40.1997C158.709 40.1997 159.596 38.4502 159.596 34.8988C159.596 33.1749 159.418 31.974 159.014 31.0977C158.582 30.1485 157.798 29.5969 156.888 29.5969C156.051 29.5979 155.238 30.1989 154.834 31.0978ZM177.068 33.6249C177.068 32.0244 176.966 31.1985 176.74 30.7485C176.461 30.2492 176.006 29.9749 175.447 29.9749C174.739 29.9749 174.104 30.4239 173.675 31.2252C173.243 32.0254 173.143 32.649 173.143 34.7252V37.8493C173.143 39.5248 173.371 39.8761 174.433 39.8761H174.79V40.6497H171.014V34.0009C171.014 31.8764 170.964 31.3751 170.661 30.7999C170.384 30.2739 169.927 29.9759 169.343 29.9759C168.633 29.9759 168.002 30.4249 167.596 31.2262C167.19 32.0501 167.09 32.7744 167.09 34.7262V37.8503C167.09 39.5525 167.293 39.8771 168.381 39.8771H168.736V40.6507H163.265V39.8771H163.669C164.708 39.8771 164.961 39.4765 164.961 37.8503V31.9268C164.961 30.3263 164.708 29.9256 163.669 29.9256H163.392V29.151L166.935 28.9754V31.0258C167.417 29.7509 168.609 28.9013 169.901 28.9013C171.32 28.9013 172.23 29.6 172.865 31.1778C173.596 29.6266 174.612 28.9013 176.006 28.9013C177.094 28.9013 178.056 29.3997 178.562 30.2255C179.044 30.9518 179.197 31.7777 179.197 33.3526V37.8512C179.197 39.504 179.425 39.878 180.489 39.878H180.764V40.6516H177.069V33.6249L177.068 33.6249Z" fill="#B7B8B9"/>
</g>
<defs>
<clipPath id="clip0_6025_362">
<rect width="187" height="41" fill="white"/>
</clipPath>
</defs>
</svg>
