<?xml version="1.0" encoding="utf-8"?>
<!-- Generator: Adobe Illustrator 28.0.0, SVG Export Plug-In . SVG Version: 6.00 Build 0)  -->
<svg version="1.1" id="Layer_1" xmlns="http://www.w3.org/2000/svg" xmlns:xlink="http://www.w3.org/1999/xlink" x="0px" y="0px"
	 viewBox="0 0 180 23" style="enable-background:new 0 0 180 23;" xml:space="preserve">
<style type="text/css">
	.st0{fill:#B7B8B9;}
</style>
<g>
	<g>
		<path class="st0" d="M9.452,7.632c0-1.599,0.082-3.549,2.8-3.924c1.312-0.18,3.239-0.13,7.689-0.231l2.316-0.019
			c4.2,0,10.963,0.129,10.963,0.129s0.002-1.512,0.002-1.831c0-0.284,0.029-0.64-0.412-0.665l-0.738-0.04
			c-2.433-0.116-8.345-0.384-12.748-0.377C18.404,0.679,8.668,0.66,5.736,0.977c-3.566,0.387-4.196,2.65-4.393,3.75
			c-0.276,1.578-0.358,4.187-0.358,6.54c0,3.293,0.31,6.434,0.516,7.276c0.328,1.34,1.53,3.212,3.923,3.466
			c2.39,0.253,7.191,0.339,13.063,0.339c5.866,0,11.382-0.185,12.77-0.464c1.463-0.292,3.357-1.46,3.357-3.495
			c0-1.859-0.001-6.59-0.001-8.01c0-0.255-0.06-0.484-0.457-0.484H20.282c-0.629,0-0.71,0.081-0.71,0.703v1.613
			c0,0.605,0.098,0.703,0.71,0.703l5.461,0.001c1.9,0,2.155-0.059,2.549,0.185c0.401,0.243,0.408,0.964,0.408,2.078
			c0,2.675-1.641,2.422-3.244,2.422c-1.466,0-3.982,0.005-5.878,0.005c-1.895,0-5.365,0.009-6.503-0.047
			c-1.134-0.06-2.113-0.025-2.851-0.876c-0.735-0.856-0.786-2.409-0.786-5.872L9.452,7.632L9.452,7.632z M153.854,7.629
			c0-1.598,0.079-3.549,2.797-3.922c1.314-0.181,3.243-0.131,7.691-0.232l2.317-0.018c4.198,0,10.963,0.126,10.963,0.126
			s0.002-1.508,0.002-1.828c0-0.287,0.027-0.641-0.414-0.666l-0.739-0.039c-2.432-0.115-8.345-0.382-12.747-0.375
			c-0.918,0.001-10.658-0.017-13.59,0.301c-3.566,0.386-4.196,2.648-4.39,3.749c-0.28,1.58-0.359,4.187-0.359,6.541
			c0,3.292,0.312,6.433,0.515,7.275c0.328,1.34,1.532,3.214,3.922,3.468c2.393,0.252,7.194,0.337,13.063,0.337
			c5.868,0,11.383-0.182,12.772-0.462c1.464-0.292,3.358-1.461,3.358-3.497v-8.009c0-0.255-0.062-0.485-0.457-0.485h-13.875
			c-0.63,0-0.709,0.083-0.709,0.703v1.611c0,0.608,0.094,0.706,0.709,0.706l5.462,0.002c1.896,0,2.152-0.06,2.549,0.182
			c0.4,0.243,0.408,0.963,0.408,2.08c0,2.673-1.644,2.42-3.246,2.42c-1.466,0-3.981,0.005-5.877,0.005
			c-1.894,0-5.361,0.009-6.5-0.047c-1.137-0.06-2.114-0.027-2.853-0.878c-0.738-0.856-0.787-2.409-0.787-5.873L153.854,7.629
			L153.854,7.629z M46.205,7.828c0-1.599,0.078-3.614,2.796-3.989c1.311-0.18,3.24-0.13,7.686-0.231
			c3.622-0.084,7.75,0.018,8.974,0.083c0.334,0,0.471,0.298,0.466,0.698c0,0.006-0.002,4.786-0.002,4.786
			c0,0.585-0.119,0.702-0.706,0.702L50.289,9.877c-0.623,0-0.707,0.081-0.707,0.703v1.79c0,0.606,0.099,0.703,0.707,0.703
			l15.119,0.004c0.56,0,0.715,0.041,0.715,0.707v8.109h4.315V1.83c0-0.41-0.024-0.638-0.363-0.666
			c-0.526-0.045-8.102-0.394-14.08-0.394c-5.976,0-11.101-0.015-13.23,0.136c-2.186,0.155-4.968,0.62-4.979,4.233l-0.003,16.747
			h8.421V7.828L46.205,7.828z M101.365,21.831c-1.767,0.062-7.242,0.306-10.502,0.306c-7.294,0-15.177-0.545-16.649-0.651
			c-0.113-0.053-0.214-0.15-0.246-0.315v-2.144c0,0,8.429,0.075,14.846-0.154c2.146-0.078,6.89-0.307,8.45-0.417
			c1.561-0.111,2.584-0.383,2.584-2.127c0-1.154-0.27-1.554-0.844-1.749c-0.727-0.246-3.809-0.705-10.654-1.27
			c-6.839-0.562-11.006-1.035-11.754-1.15c-3.451-0.54-3.165-3.515-3.165-5.529c0-2.597-0.245-5.19,3.686-5.545
			c1.237-0.134,5.856-0.434,12.881-0.434c4.489,0,11.951,0.296,14.878,0.478c0.446,0.028,0.411,0.463,0.411,0.657v1.792
			c0,0-5.749-0.135-13.391-0.135c-3.627,0-9.112,0.201-11.211,0.638c-1.273,0.269-1.273,1.163-1.268,1.476
			c0.01,0.726,0.056,1.28,1.433,1.503c1.625,0.265,4.469,0.181,11.602,0.792c7.274,0.622,8.407,0.735,8.915,0.789
			c4.081,0.431,5.131,1.338,5.131,6.38C106.498,18.067,106.855,21.638,101.365,21.831z M109.608,21.885h8.421V7.828
			c0-1.598,0.079-3.614,2.795-3.987c1.314-0.181,3.242-0.131,7.69-0.232c3.619-0.084,7.75,0.018,8.975,0.083
			c0.329,0,0.47,0.298,0.462,0.699v4.785c0,0.585-0.12,0.703-0.709,0.703l-15.125-0.001c-0.627,0-0.708,0.081-0.708,0.702v1.79
			c0,0.606,0.097,0.703,0.708,0.703l15.115,0.004c0.562,0,0.717,0.041,0.717,0.708v8.108h4.315V1.83c0-0.41-0.026-0.638-0.364-0.666
			c-0.526-0.043-8.106-0.394-14.083-0.394c-5.973,0-11.097-0.014-13.228,0.136c-2.184,0.155-4.969,0.622-4.981,4.233V21.885z"/>
	</g>
</g>
</svg>
