<?xml version="1.0" encoding="UTF-8"?>
<svg id="Layer_2" data-name="Layer 2" xmlns="http://www.w3.org/2000/svg" version="1.1" xmlns:xlink="http://www.w3.org/1999/xlink" viewBox="0 0 567.9 443.6">
  <defs>
    <style>
      .cls-1 {
        filter: url(#drop-shadow-1);
      }

      .cls-2 {
        fill: #fff;
        stroke-width: 0px;
      }
    </style>
    <filter id="drop-shadow-1" filterUnits="userSpaceOnUse">
      <feOffset dx="10" dy="10"/>
      <feGaussianBlur result="blur" stdDeviation="10"/>
      <feFlood flood-color="#000" flood-opacity=".2"/>
      <feComposite in2="blur" operator="in"/>
      <feComposite in="SourceGraphic"/>
    </filter>
  </defs>
  <g id="LOGOS" class="cls-1">
    <path class="cls-2" d="M368.7,31.7h0Z"/>
    <path class="cls-2" d="M422.2,169.8c-11,9.2-20.3,21-26.7,35l-91.1,198.7c50.2,23,109.6,1,132.7-49.3l91.1-198.7c-17.4-8-35.9-10.5-53.5-8.4-19.2,2.3-37.5,10.2-52.5,22.7h0Z"/>
    <path class="cls-2" d="M316.3,54.4c-11,9.3-20.3,21-26.7,35l-143.9,314.1c17.4,8,35.9,10.5,53.5,8.4,19.2-2.3,37.5-10.2,52.4-22.7,11.1-9.2,20.3-21,26.7-35L422.2,40.1c-17.4-8-35.9-10.5-53.5-8.4-19.2,2.3-37.5,10.2-52.5,22.7h0Z"/>
    <path class="cls-2" d="M130.7,89.4l-91,198.7c17.4,8,35.8,10.5,53.5,8.4,19.2-2.3,37.5-10.2,52.4-22.7,11.1-9.2,20.3-21,26.7-35l91-198.7c-50.2-23-109.7-1-132.7,49.3h0Z"/>
  </g>
</svg>