<?xml version="1.0" encoding="utf-8"?>
<!-- Generator: Adobe Illustrator 28.0.0, SVG Export Plug-In . SVG Version: 6.00 Build 0)  -->
<svg version="1.1" id="Layer_1" xmlns="http://www.w3.org/2000/svg" xmlns:xlink="http://www.w3.org/1999/xlink" x="0px" y="0px"
	 viewBox="0 0 241 35.794" style="enable-background:new 0 0 241 35.794;" xml:space="preserve">
<style type="text/css">
	.st0{fill-rule:evenodd;clip-rule:evenodd;fill:#B7B8B9;}
	.st1{fill:#B7B8B9;}
</style>
<g>
	<g>
		<path class="st0" d="M56.54,8.223H39.41v4.377h6.1v16.048h5.515V12.599h5.515L56.54,8.223z M58.461,8.223v4.377h5.515v16.048
			h5.515V12.599h6.1V8.223H58.461z M117.562,28.647V8.223h-5.264v12.222l-9.383-12.222H97.65v20.424h5.265V16.573l9.383,12.074
			L117.562,28.647z M78.265,28.647h15.57v-4.376H83.779v-4.02h8.523v-4.377h-8.523V12.6h10.055V8.223h-15.57V28.647z
			 M121.758,28.647h5.515v-8.266h8.902v-4.377h-8.902v-3.404h10.556V8.223h-16.071V28.647z M17.373,8.223l-5.997,14.36h-0.047
			L5.332,8.223H0l8.638,20.424h5.429l8.638-20.424H17.373z M178.343,28.647h15.227v-4.533h-9.712V8.223h-5.515V28.647z
			 M160.738,28.647h15.227v-4.533h-9.713V8.223h-5.514V28.647z M144.567,20.843l2.881-6.976h0.037l2.891,6.975L144.567,20.843z
			 M153.612,28.647h5.332l-8.777-20.424h-5.401l-8.778,20.424h5.332L142.832,25h9.268L153.612,28.647z M27.728,20.843l2.881-6.976
			h0.037l2.892,6.975L27.728,20.843z M36.773,28.647h5.332L33.328,8.223h-5.401l-8.777,20.424h5.332L25.994,25h9.267L36.773,28.647z
			"/>
		<path class="st1" d="M222.549,0c-10.173,0-18.45,8.028-18.45,17.897c0,9.868,8.277,17.897,18.45,17.897
			c10.174,0,18.451-8.029,18.451-17.897C241,8.028,232.723,0,222.549,0z M222.549,1.693c9.226,0,16.705,7.255,16.705,16.204h-1.745
			H207.59h-1.746C205.844,8.948,213.323,1.693,222.549,1.693z"/>
	</g>
</g>
</svg>
