<?xml version="1.0" encoding="utf-8"?>
<!-- Generator: Adobe Illustrator 28.3.0, SVG Export Plug-In . SVG Version: 6.00 Build 0)  -->
<!DOCTYPE svg PUBLIC "-//W3C//DTD SVG 1.1//EN" "http://www.w3.org/Graphics/SVG/1.1/DTD/svg11.dtd" [
	<!ENTITY st0 "fill:#FFFFFF;">
]>
<svg version="1.1" id="Layer_2_00000109724871375535706430000011428443884462533794_"
	 xmlns="http://www.w3.org/2000/svg" xmlns:xlink="http://www.w3.org/1999/xlink" x="0px" y="0px" viewBox="0 0 1399.18 235.33"
	 style="enable-background:new 0 0 1399.18 235.33;" xml:space="preserve">
<g id="LOGOS">
	<path style="&st0;" d="M1195.8,92.37c-14.45-15.3-85.5-6.53-85.5-6.53s-21.17,126.01-25.43,149.48h27.25l10.07-56.33
		c19.71,2.94,64.01,12.95,71.1-23.53l7.07-40.21C1202,105.6,1200.48,97.97,1195.8,92.37L1195.8,92.37z M1167.35,149.64
		c-1.06,5.98-6.09,10.39-12.14,10.76c-9.74,0.45-19.76-0.79-29.23-2.64l8.5-51.21c0,0,14.65-0.75,23.99-0.59
		c9.77,0.16,16.08,3.89,12.83,21.32L1167.35,149.64L1167.35,149.64z"/>
	<polygon style="&st0;" points="663.73,85.82 646.75,182.4 673.67,182.4 690.65,85.82 	"/>
	<path style="&st0;" d="M940.51,85.84l-35.3,58.13L892.4,85.84h-28.99L883.94,179l-1.26,2.07c-3.57,5.87-8.49,10.52-14.32,13.68
		c-3.29,1.78-6.86,3.1-10.66,3.87c-5.71,1.16-11.43,0.97-16.87-0.41l-4.29,24.42c4.48,0.99,9.06,1.53,13.66,1.53
		c4.14,0,8.31-0.41,12.42-1.25c0.28-0.06,0.54-0.15,0.82-0.21c16.79-3.64,31.49-14.07,40.42-28.77l65.64-108.1h-28.99L940.51,85.84z
		"/>
	<path style="&st0;" d="M617.24,83.77c-5.87,0.05-11.73,0.83-17.59,2.33c-5.86,1.5-12.5,4.25-17.53,6.58l11.94-67.35h-26.92
		L539.38,182.4h26.93l12.02-67.77c1.1-1.35,3.82-3.05,8.15-5.1c4.33-2.05,9.9-3.18,16.68-3.39c5.97-0.13,9.97,1.37,12.01,4.51
		s2.31,8.68,0.83,16.63l-9.73,55.13h26.92L645,115.26c1.64-9.65,0.12-17.28-4.56-22.88c-4.68-5.61-12.41-8.47-23.2-8.59V83.77z"/>
	<polygon style="&st0;" points="672.34,36.72 668.7,57.44 695.62,57.44 699.26,36.72 	"/>
	<path style="&st0;" d="M865.28,85.84H704l-3.62,20.7h48.45l-58.93,59.45l-2.88,16.4h158.46l3.64-20.7h-47.13l63.29-67.45
		C865.28,94.24,865.28,85.84,865.28,85.84z M766.29,161.7h-36.4l51.75-55.15h39.31l-54.67,55.15H766.29z"/>
	<polygon style="&st0;" points="487.48,144.42 475.3,35.68 445.25,35.68 400.14,144.42 388.17,35.69 361.24,35.69 376.65,182.4 
		414.34,182.4 453.91,80.58 464.6,182.4 499.4,182.4 556.43,35.69 529.49,35.69 	"/>
	<path style="&st0;" d="M1023.74,35.69L938.45,182.4h32.1l21.66-37.98h55.81l7.67,37.98h32.08l-33.98-146.71L1023.74,35.69
		L1023.74,35.69z M1004.04,123.69l29.43-51.6l10.39,51.6H1004.04z"/>
	<path style="&st0;" d="M1377.43,124.17l-16.12-1.31c-6.74-0.88-19.75,0.24-18.03-8.85c3.31-17.53,34.81-6.69,41.46-2.14
		l12.75-19.13c0,0-12.47-7.11-25.45-8.68c-9.2-1.12-18.75-0.54-27.63,2.22c-8.11,2.52-15.83,7.05-20.83,14.06
		c-5.85,8.19-9.19,23.46-3.77,32.57c4.58,7.71,14.58,9.56,22.77,10.5c7.1,0.82,14.27,1.14,21.4,1.7c8.41,0.67,9.9,3.75,9.31,8.5
		c-1.46,11.86-25.41,12.04-39.89,6.22c-4.21-1.69-8.75-3.89-11.83-7.25l-14.42,17.91c41.22,27.22,85.29,17.92,91.41-17.71
		c3.39-19.69-7.38-27.32-21.12-28.61H1377.43z"/>
	<path style="&st0;" d="M1302.8,91.96c-14.45-15.3-85.5-6.53-85.5-6.53s-21.17,126.01-25.43,149.48h27.25l10.07-56.33
		c19.71,2.94,64.01,12.95,71.1-23.53l7.07-40.21C1309,105.19,1307.48,97.56,1302.8,91.96L1302.8,91.96z M1274.35,149.23
		c-1.06,5.98-6.09,10.39-12.14,10.76c-9.74,0.45-19.76-0.79-29.23-2.64l8.5-51.21c0,0,14.65-0.75,23.99-0.59
		c9.77,0.16,16.08,3.89,12.83,21.32L1274.35,149.23L1274.35,149.23z"/>
	<polygon style="&st0;" points="98.22,0.44 98.22,0.45 98.23,0.45 	"/>
	<path style="&st0;" d="M65.27,85.47c-9.21-7.7-20.47-12.55-32.3-13.96C22.08,70.2,10.72,71.78,0,76.68l56.09,122.35
		c14.18,30.94,50.77,44.53,81.7,30.35L81.7,107.03C77.76,98.42,72.07,91.16,65.27,85.47z"/>
	<path style="&st0;" d="M130.54,14.41c-9.21-7.7-20.47-12.55-32.3-13.96C87.35-0.86,75.99,0.72,65.27,5.62
		c0,0,88.63,193.41,88.63,193.42c3.94,8.61,9.63,15.86,16.43,21.56c9.21,7.7,20.47,12.55,32.3,13.96
		c10.89,1.31,22.25-0.27,32.97-5.17c0,0-88.63-193.41-88.63-193.42C143.03,27.36,137.34,20.1,130.54,14.41L130.54,14.41z"/>
	<path style="&st0;" d="M244.79,35.99c-14.18-30.96-50.77-44.55-81.7-30.37l56.06,122.37c3.96,8.61,9.65,15.87,16.46,21.56
		c9.21,7.7,20.44,12.55,32.3,13.96c10.89,1.31,22.25-0.27,32.94-5.17L244.79,35.99L244.79,35.99z"/>
</g>
</svg>
