<?xml version="1.0" encoding="UTF-8"?>
<svg id="Layer_2" data-name="Layer 2" xmlns="http://www.w3.org/2000/svg" version="1.1" viewBox="0 0 593.2 593.2">
  <defs>
    <style>
      .cls-1 {
        fill: #3c3c3c;
      }

      .cls-1, .cls-2 {
        stroke-width: 0px;
      }

      .cls-2 {
        fill: #fff;
      }
    </style>
  </defs>
  <path class="cls-1" d="M296.6,2.6h0c162.4,0,294,131.6,294,294h0c0,162.4-131.6,294-294,294h0C134.2,590.6,2.6,459,2.6,296.6h0C2.6,134.2,134.2,2.6,296.6,2.6Z"/>
  <g id="LOGOS">
    <path class="cls-2" d="M381.4,106.5h0Z"/>
    <path class="cls-2" d="M434.9,244.6c-11,9.2-20.3,21-26.7,35l-91.1,198.7c50.2,23,109.6,1,132.7-49.3l91.1-198.7c-17.4-8-35.9-10.5-53.5-8.4-19.2,2.3-37.5,10.2-52.5,22.7h0Z"/>
    <path class="cls-2" d="M329,129.2c-11,9.3-20.3,21-26.7,35l-143.9,314.1c17.4,8,35.9,10.5,53.5,8.4,19.2-2.3,37.5-10.2,52.4-22.7,11.1-9.2,20.3-21,26.7-35L434.9,114.9c-17.4-8-35.9-10.5-53.5-8.4-19.2,2.3-37.5,10.2-52.5,22.7h.1Z"/>
    <path class="cls-2" d="M143.4,164.2l-91,198.7c17.4,8,35.8,10.5,53.5,8.4,19.2-2.3,37.5-10.2,52.4-22.7,11.1-9.2,20.3-21,26.7-35l91-198.7c-50.2-23-109.7-1-132.7,49.3h0Z"/>
  </g>
</svg>