<svg width="487" height="428" viewBox="0 0 487 428" fill="none" xmlns="http://www.w3.org/2000/svg">
<path d="M57.3505 58.3906L57.3505 0.94695L6.85009e-07 0.946949C3.06709e-07 32.6705 25.6747 58.3906 57.3505 58.3906Z" fill="#1D5DEC"/>
<path d="M61.3506 0.946949L61.3506 58.3906L118.701 58.3906C118.701 26.6671 93.0227 0.946949 61.3506 0.946949Z" fill="#1D5DEC"/>
<path d="M122.701 0.946949L122.701 58.3906L180.052 58.3906C180.052 26.6671 154.373 0.946949 122.701 0.946949Z" fill="#1D5DEC"/>
<path d="M241.402 58.3906L241.402 0.946937L184.052 0.946936C184.052 32.6705 209.726 58.3906 241.402 58.3906Z" fill="#1D5DEC"/>
<path d="M245.402 58.3906L302.753 58.3906L302.753 0.94695C271.08 0.946949 245.402 26.6634 245.402 58.3906Z" fill="#1D5DEC"/>
<path d="M364.103 58.3906L364.103 0.94695L306.753 0.946949C306.753 32.6705 332.427 58.3906 364.103 58.3906Z" fill="#020035"/>
<path d="M368.103 0.946938L368.103 58.3906L425.454 58.3906C425.454 26.6671 399.775 0.946938 368.103 0.946938Z" fill="#020035"/>
<path d="M429.454 58.3906L486.804 58.3906L486.804 0.94695C455.132 0.946949 429.454 26.6671 429.454 58.3906Z" fill="#1D5DEC"/>
<path d="M0 119.834L57.3505 119.834L57.3505 62.3908C25.6784 62.3908 3.78344e-07 88.1072 0 119.834Z" fill="#20C563"/>
<path d="M61.3506 62.3908L61.3506 119.834L118.701 119.834L118.701 62.3908L61.3506 62.3908Z" fill="#1D5DEC"/>
<path d="M122.701 62.3908L122.701 119.834L180.051 119.834C180.051 88.1109 154.373 62.3908 122.701 62.3908Z" fill="#1D5DEC"/>
<path d="M184.052 62.3908L184.052 119.834L241.402 119.834L241.402 62.3908L184.052 62.3908Z" fill="#1D5DEC"/>
<path d="M302.753 119.834L302.753 62.3908L245.402 62.3908C245.402 94.1143 271.077 119.834 302.753 119.834Z" fill="#020035"/>
<path d="M306.753 62.3908L306.753 119.834L364.103 119.834C364.103 88.1109 338.425 62.3908 306.753 62.3908Z" fill="#1D5DEC"/>
<path d="M368.103 119.834L425.454 119.834L425.454 62.3908C393.781 62.3908 368.103 88.1109 368.103 119.834Z" fill="#1D5DEC"/>
<path d="M429.454 62.3908L429.454 119.834L486.804 119.834L486.804 62.3908L429.454 62.3908Z" fill="#20C563"/>
<path d="M57.3505 181.278L57.3505 123.834L6.85009e-07 123.834C3.06709e-07 155.558 25.6747 181.278 57.3505 181.278Z" fill="#1D5DEC"/>
<path d="M118.701 123.834L61.3506 123.834L61.3506 181.278C93.0227 181.278 118.701 155.558 118.701 123.834Z" fill="#1D5DEC"/>
<path d="M122.701 123.834L122.701 181.278L180.052 181.278L180.052 123.834L122.701 123.834Z" fill="#1D5DEC"/>
<path d="M184.052 123.834L184.052 181.278L241.402 181.278C241.402 149.555 215.724 123.834 184.052 123.834Z" fill="#FFE601"/>
<path d="M245.402 123.834L245.402 181.278L302.753 181.278C302.753 149.555 277.074 123.834 245.402 123.834Z" fill="#1D5DEC"/>
<path d="M364.103 123.834L306.753 123.834L306.753 181.278C338.425 181.278 364.103 155.558 364.103 123.834Z" fill="#1D5DEC"/>
<path d="M368.103 181.278L425.454 181.278L425.454 123.834C393.781 123.834 368.103 149.551 368.103 181.278Z" fill="#1D5DEC"/>
<path d="M486.804 181.278L486.804 123.834L429.454 123.834C429.454 155.558 455.128 181.278 486.804 181.278Z" fill="#1D5DEC"/>
<path d="M57.3505 242.722L57.3505 185.278L6.85009e-07 185.278C3.06709e-07 217.002 25.6747 242.722 57.3505 242.722Z" fill="#1D5DEC"/>
<path d="M118.701 185.278L61.3506 185.278L61.3506 242.722C93.0227 242.722 118.701 217.002 118.701 185.278Z" fill="#1D5DEC"/>
<path d="M180.052 185.278L122.701 185.278L122.701 242.722C154.373 242.722 180.052 217.002 180.052 185.278Z" fill="#FFE601"/>
<path d="M184.052 185.278L184.052 242.722L241.402 242.722L241.402 185.278L184.052 185.278Z" fill="#1D5DEC"/>
<path d="M245.402 185.278L245.402 242.722L302.753 242.722C302.753 210.998 277.074 185.278 245.402 185.278Z" fill="#1D5DEC"/>
<path d="M306.753 242.722L364.103 242.722L364.103 185.278C332.431 185.278 306.753 210.994 306.753 242.722Z" fill="#1D5DEC"/>
<path d="M425.454 185.278L368.103 185.278L368.103 242.722C399.775 242.722 425.454 217.002 425.454 185.278Z" fill="#1D5DEC"/>
<path d="M429.454 242.722L486.804 242.722L486.804 185.278C455.132 185.278 429.454 210.998 429.454 242.722Z" fill="#1D5DEC"/>
<path d="M6.85009e-07 246.722L0 304.166L57.3505 304.166C57.3505 272.442 31.6721 246.722 6.85009e-07 246.722Z" fill="#1D5DEC"/>
<path d="M61.3506 304.166L118.701 304.166L118.701 246.722C87.029 246.722 61.3506 272.442 61.3506 304.166Z" fill="#FFE601"/>
<path d="M122.701 246.722L122.701 304.166L180.052 304.166C180.052 272.442 154.373 246.722 122.701 246.722Z" fill="#1D5DEC"/>
<path d="M184.052 304.166L241.402 304.166L241.402 246.722C209.73 246.722 184.052 272.438 184.052 304.166Z" fill="#1D5DEC"/>
<path d="M302.753 246.722L245.402 246.722L245.402 304.166C277.074 304.166 302.753 278.445 302.753 246.722Z" fill="#1D5DEC"/>
<path d="M364.103 246.722L306.753 246.722L306.753 304.166C338.425 304.166 364.103 278.445 364.103 246.722Z" fill="#1D5DEC"/>
<path d="M368.103 304.166L425.454 304.166L425.454 246.722C393.781 246.722 368.103 272.442 368.103 304.166Z" fill="#1D5DEC"/>
<path d="M486.804 304.166L486.804 246.722L429.454 246.722C429.454 278.445 455.128 304.166 486.804 304.166Z" fill="#1D5DEC"/>
<path d="M6.85009e-07 308.165L0 365.609L57.3505 365.609C57.3505 333.886 31.6721 308.165 6.85009e-07 308.165Z" fill="#1D5DEC"/>
<path d="M61.3506 365.609L118.701 365.609L118.701 308.165C87.029 308.165 61.3506 333.886 61.3506 365.609Z" fill="#1D5DEC"/>
<path d="M180.052 308.165L122.701 308.165L122.701 365.609C154.373 365.609 180.052 339.889 180.052 308.165Z" fill="#1D5DEC"/>
<path d="M184.052 308.165L184.052 365.609L241.402 365.609L241.402 308.165L184.052 308.165Z" fill="#1D5DEC"/>
<path d="M245.402 308.165L245.402 365.609L302.753 365.609C302.753 333.886 277.074 308.165 245.402 308.165Z" fill="#020035"/>
<path d="M364.103 365.609L364.103 308.165L306.753 308.165C306.753 339.893 332.431 365.609 364.103 365.609Z" fill="#1D5DEC"/>
<path d="M368.103 308.165L368.103 365.609L425.454 365.609C425.454 333.886 399.775 308.165 368.103 308.165Z" fill="#1D5DEC"/>
<path d="M429.454 365.609L486.804 365.609L486.804 308.165C455.132 308.165 429.454 333.886 429.454 365.609Z" fill="#1D5DEC"/>
<path d="M0 427.053L57.3505 427.053L57.3505 369.609C25.6784 369.609 3.783e-07 395.329 0 427.053Z" fill="#1D5DEC"/>
<path d="M118.701 427.053L118.701 369.609L61.3506 369.609C61.3506 401.333 87.0253 427.053 118.701 427.053Z" fill="#1D5DEC"/>
<path d="M122.701 369.609L122.701 427.053L180.052 427.053L180.052 369.609L122.701 369.609Z" fill="#1D5DEC"/>
<path d="M241.402 427.053L241.402 369.609L184.052 369.609C184.052 401.333 209.726 427.053 241.402 427.053Z" fill="#020035"/>
<path d="M245.402 369.609L245.402 427.053L302.753 427.053C302.753 395.329 277.074 369.609 245.402 369.609Z" fill="#020035"/>
</svg>
