<svg width="1020" height="156" viewBox="0 0 1020 156" fill="none" xmlns="http://www.w3.org/2000/svg">
<g clip-path="url(#clip0_7_329)">
<path fill-rule="evenodd" clip-rule="evenodd" d="M56.5401 17.8258H39.4103V22.2025H45.5104V38.2502H51.025V22.2025H56.5402L56.5401 17.8258ZM58.4614 17.8258V22.2025H63.9762V38.2502H69.4908V22.2025H75.5912V17.8258H58.4614ZM117.562 38.2502V17.8265H112.298V30.0483L102.915 17.8261H97.6505V38.2501H102.915V26.1763L112.298 38.2506L117.562 38.2502ZM78.2645 38.2502H93.8342V33.8742H83.7794V29.8542H92.3021V25.4775H83.7794V22.2028H93.8343V17.8262H78.2645V38.2502ZM121.758 38.2502H127.273V29.984H136.175V25.6067H127.273V22.2025H137.829V17.8265H121.758V38.2502ZM17.3729 17.8258L11.3764 32.1856H11.329L5.33246 17.8258H0L8.63812 38.2501H14.0669L22.705 17.8258H17.3729ZM178.343 38.2502H193.57V33.7168H183.858V17.8262H178.343V38.2502ZM160.738 38.2502H175.965V33.7168H166.252V17.8262H160.738V38.2502ZM144.567 30.4463L147.448 23.4704H147.485L150.376 30.4456L144.567 30.4463ZM153.612 38.2505H158.944L150.167 17.8262H144.766L135.988 38.2502H141.32L142.832 34.603H152.1L153.612 38.2505ZM27.728 30.4463L30.6092 23.4704H30.6457L33.5374 30.4456L27.728 30.4463ZM36.7732 38.2505H42.105L33.3277 17.8262H27.9268L19.1495 38.2502H24.4816L25.9936 34.603H35.2611L36.7732 38.2505Z" fill="#B7B8B9"/>
<path d="M222.549 9.60327C212.376 9.60327 204.099 17.6317 204.099 27.5C204.099 37.3683 212.376 45.3968 222.549 45.3968C232.723 45.3968 241 37.3683 241 27.5C241 17.6317 232.723 9.60327 222.549 9.60327ZM222.549 11.2964C231.775 11.2964 239.255 18.551 239.255 27.5H237.509H207.59H205.844C205.844 18.551 213.323 11.2964 222.549 11.2964Z" fill="#B7B8B9"/>
</g>
<g clip-path="url(#clip1_7_329)">
<path d="M470.453 23.6319C470.453 22.0332 470.534 20.0828 473.252 19.7084C474.564 19.5289 476.491 19.5784 480.941 19.4779L483.257 19.4588C487.457 19.4588 494.22 19.5875 494.22 19.5875C494.22 19.5875 494.222 18.0754 494.222 17.757C494.222 17.4729 494.251 17.1174 493.81 17.0919L493.071 17.0523C490.638 16.9365 484.726 16.6688 480.324 16.6752C479.404 16.6793 469.668 16.6599 466.736 16.9771C463.17 17.3644 462.54 19.6267 462.343 20.7273C462.066 22.3058 461.985 24.9148 461.985 27.2676C461.985 30.5605 462.295 33.702 462.501 34.5439C462.829 35.884 464.031 37.7554 466.424 38.0102C468.814 38.2637 473.616 38.3491 479.487 38.3491C485.354 38.3491 490.87 38.1644 492.258 37.8853C493.721 37.5937 495.615 36.4255 495.615 34.3899C495.615 32.5313 495.614 27.8001 495.614 26.3796C495.614 26.1249 495.553 25.8956 495.156 25.8956H481.282C480.653 25.8956 480.573 25.9771 480.573 26.5988V28.2114C480.573 28.8166 480.671 28.9146 481.282 28.9146L486.743 28.9157C488.643 28.9157 488.898 28.857 489.293 29.1004C489.693 29.3438 489.701 30.0648 489.701 31.1781C489.701 33.8532 488.059 33.5997 486.457 33.5997C484.991 33.5997 482.474 33.6049 480.579 33.6049C478.684 33.6049 475.214 33.6139 474.076 33.5576C472.942 33.4979 471.963 33.5321 471.225 32.6811C470.49 31.8251 470.438 30.2722 470.438 26.8086L470.452 23.6316L470.453 23.6319ZM614.854 23.6289C614.854 22.0314 614.933 20.0798 617.651 19.7066C618.965 19.5256 620.894 19.5754 625.343 19.4748L627.66 19.457C631.857 19.457 638.623 19.5831 638.623 19.5831C638.623 19.5831 638.625 18.0749 638.625 17.755C638.625 17.4683 638.651 17.1142 638.21 17.0887L637.472 17.0493C635.039 16.9347 629.126 16.6672 624.724 16.6747C623.806 16.6758 614.067 16.6581 611.134 16.9753C607.569 17.3613 606.938 19.6237 606.745 20.7243C606.465 22.304 606.386 24.9116 606.386 27.2658C606.386 30.5574 606.697 33.6988 606.9 34.5409C607.228 35.881 608.433 37.7548 610.823 38.0084C613.215 38.2607 618.017 38.3459 623.886 38.3459C629.753 38.3459 635.268 38.1637 636.657 37.8834C638.122 37.5917 640.016 36.4223 640.016 34.3865V26.3775C640.016 26.1227 639.953 25.8922 639.558 25.8922H625.683C625.054 25.8922 624.974 25.9749 624.974 26.5954V28.2068C624.974 28.8144 625.069 28.9125 625.683 28.9125L631.145 28.9145C633.041 28.9145 633.298 28.8546 633.694 29.0967C634.094 29.34 634.103 30.0596 634.103 31.177C634.103 33.8497 632.459 33.5974 630.856 33.5974C629.39 33.5974 626.875 33.6025 624.98 33.6025C623.086 33.6025 619.618 33.6116 618.479 33.5555C617.342 33.4956 616.365 33.5287 615.627 32.6777C614.888 31.8217 614.839 30.2688 614.839 26.8051L614.854 23.628V23.6289ZM507.205 23.8284C507.205 22.2297 507.283 20.2144 510 19.8398C511.312 19.6603 513.241 19.7098 517.687 19.6093C521.309 19.5251 525.437 19.6271 526.66 19.692C526.994 19.692 527.131 19.9901 527.126 20.39C527.126 20.3961 527.124 25.176 527.124 25.176C527.124 25.7606 527.005 25.8779 526.419 25.8779L511.29 25.8769C510.667 25.8769 510.583 25.9583 510.583 26.58V28.3701C510.583 28.9765 510.682 29.0733 511.29 29.0733L526.409 29.0774C526.969 29.0774 527.123 29.1182 527.123 29.7844V37.8939H531.439V17.8302C531.439 17.42 531.415 17.1919 531.076 17.164C530.549 17.1194 522.974 16.7703 516.995 16.7703C511.02 16.7703 505.894 16.7549 503.765 16.9065C501.579 17.062 498.797 17.527 498.787 21.1396L498.784 37.8861H507.205V23.8288V23.8284ZM562.365 37.8306C560.598 37.893 555.124 38.1364 551.863 38.1364C544.569 38.1364 536.687 37.5912 535.215 37.4854C535.102 37.4319 535.001 37.3351 534.968 37.1707V35.0268C534.968 35.0268 543.397 35.102 549.815 34.8725C551.961 34.7948 556.705 34.5655 558.265 34.456C559.826 34.3451 560.848 34.0725 560.848 32.3286C560.848 31.1745 560.578 30.7744 560.004 30.5796C559.277 30.3337 556.195 29.8751 549.35 29.3096C542.511 28.7478 538.344 28.2751 537.596 28.1592C534.144 27.6191 534.431 24.6445 534.431 22.6305C534.431 20.0331 534.186 17.4407 538.117 17.0853C539.354 16.9516 543.973 16.651 550.998 16.651C555.487 16.651 562.948 16.9466 565.876 17.1287C566.321 17.1566 566.286 17.5911 566.286 17.786V19.5784C566.286 19.5784 560.538 19.4435 552.896 19.4435C549.268 19.4435 543.784 19.6447 541.685 20.0817C540.412 20.3506 540.412 21.2448 540.417 21.5582C540.427 22.2844 540.473 22.8385 541.85 23.0614C543.475 23.3263 546.318 23.2424 553.452 23.8537C560.726 24.4755 561.859 24.5889 562.368 24.6423C566.448 25.0729 567.498 25.9799 567.498 31.0219C567.498 34.0675 567.855 37.6382 562.365 37.8306ZM570.608 37.8853H579.029V23.8281C579.029 22.2306 579.108 20.214 581.825 19.8409C583.138 19.6599 585.066 19.7096 589.515 19.6091C593.133 19.5249 597.264 19.6269 598.489 19.6918C598.819 19.6918 598.959 19.9899 598.952 20.3913V25.176C598.952 25.7606 598.831 25.8792 598.242 25.8792L583.117 25.8781C582.49 25.8781 582.41 25.9596 582.41 26.58V28.3699C582.41 28.9763 582.506 29.0731 583.117 29.0731L598.232 29.0772C598.795 29.0772 598.949 29.1181 598.949 29.7856V37.8939H603.265V17.8297C603.265 17.4195 603.238 17.1914 602.9 17.1634C602.374 17.1201 594.795 16.7697 588.818 16.7697C582.844 16.7697 577.72 16.7557 575.589 16.906C573.405 17.0614 570.62 17.5277 570.608 21.139V37.8853Z" fill="#B7B8B9"/>
</g>
<g clip-path="url(#clip2_7_329)">
<path d="M996.515 22.6324H1001.16L996.468 27.3209H991.827L996.515 22.6324ZM990.259 22.6324H994.9L990.212 27.3209H985.572L990.259 22.6324ZM1006.87 22.6324H1002.23L1006.91 27.3209H1011.55L1006.87 22.6324ZM1013.13 22.6324H1008.49L1013.17 27.3209H1017.81L1013.13 22.6324ZM1010.29 9.62618C1011.09 7.46107 1011.65 4.15889 1011.77 1.85359L1020 3.87852C1019.34 13.4268 1012.1 21.7913 1001.35 21.7913C989.196 21.7835 984.493 11.3396 985.131 3.41901L988.7 2.29752C988.117 6.80686 989.527 10.0545 990.504 11.5421C989.346 5.16356 994.214 0.00779964 1000.3 1.14778e-05C1005.77 -0.00777668 1010.3 3.94861 1010.29 9.62618ZM993.726 9.82867C993.726 13.4268 996.672 16.3396 1000.31 16.3396C1003.95 16.3396 1006.9 13.4268 1006.9 9.82867C1006.9 6.23054 1003.95 3.31777 1000.31 3.31777C996.672 3.31777 993.726 6.23054 993.726 9.82867ZM864.671 7.23521H861.166V21.7212H864.207C868.997 21.7212 871.47 18.8941 871.47 14.3536C871.47 11.1994 870.296 9.26792 868.697 8.24767C867.736 7.63241 866.499 7.23521 864.671 7.23521ZM864.443 9.04207C867.76 9.04207 869.083 11.2617 869.083 14.3536C869.083 17.796 867.571 19.9143 864.443 19.9143H863.434V9.04207H864.443ZM881.531 17.0171V16.2928C881.531 12.5545 879.877 10.9346 877.497 10.9346C874.787 10.9346 873.196 13.2165 873.196 16.4798C873.196 19.595 874.708 21.877 877.86 21.877C879.183 21.877 880.27 21.5421 880.964 21.2305L880.861 19.4237C880.318 19.8209 879.459 20.2726 878.214 20.2726C876.221 20.2726 875.378 19.1511 875.378 17.0094L881.531 17.0171ZM879.388 15.5374H875.378C875.402 13.5904 876.197 12.4689 877.434 12.4689C878.734 12.4689 879.388 13.5047 879.388 15.5374ZM891.647 21.729C891.607 21.1059 891.56 20.3972 891.56 19.6963V11.0748H889.378V17.3209C889.378 18.9642 888.747 20.0623 887.361 20.0623C886.25 20.0623 885.699 19.3536 885.699 17.6947V11.0748H883.516V18.1932C883.516 20.4361 884.501 21.8692 886.668 21.8692C888.141 21.8692 888.937 21.0981 889.464 20.1013H889.504C889.504 20.4128 889.583 21.4486 889.583 21.7212L891.647 21.729ZM899.273 21.5576V19.9377C898.997 20.0623 898.666 20.1869 898.225 20.1869C897.445 20.1869 897.091 19.7897 897.091 18.6293V12.7337H899.273V11.0748H897.091V8.25546L894.908 8.89409V11.0748H893.183V12.7337H894.908V19.0732C894.908 21.1293 895.893 21.877 897.658 21.877C898.288 21.8692 898.871 21.729 899.273 21.5576ZM907.041 18.6527C907.041 17.3676 906.261 16.6823 904.961 15.9502L904.016 15.4284C903.07 14.9066 902.503 14.5561 902.503 13.8474C902.503 13.0997 903.023 12.6013 904.118 12.6013C905 12.6013 905.733 12.8115 906.324 13.0608L906.426 11.3162C905.985 11.1449 905.079 10.919 903.945 10.919C901.762 10.919 900.352 12.3676 900.352 13.972C900.352 15.4907 901.211 16.1916 902.535 16.838L903.669 17.3988C904.638 17.8738 904.93 18.3567 904.93 18.9175C904.93 19.743 904.197 20.1869 903.062 20.1869C902.015 20.1869 901.069 19.7508 900.455 19.4393L900.329 21.3084C900.998 21.6199 902.07 21.8692 903.291 21.8692C905.717 21.8692 907.041 20.5452 907.041 18.6527ZM915.92 21.433L915.794 19.6028C915.313 19.8754 914.533 20.1402 913.801 20.1402C911.933 20.1402 910.862 18.6916 910.862 16.4642C910.862 13.8863 911.91 12.648 913.761 12.648C914.541 12.648 915.171 12.8738 915.691 13.1464L915.794 11.3396C915.266 11.1137 914.391 10.9268 913.611 10.9268C910.295 10.9268 908.593 13.2087 908.593 16.4486C908.593 19.4548 910.129 21.8692 913.509 21.8692C914.431 21.8692 915.353 21.6667 915.92 21.433ZM925.626 21.729V14.6106C925.626 12.3676 924.641 10.9346 922.475 10.9346C921.049 10.9346 920.269 11.7212 919.812 12.4922H919.772V6.16045H917.59V21.729H919.772V15.4206C919.772 13.7773 920.466 12.7414 921.828 12.7414C922.939 12.7414 923.444 13.4502 923.444 15.109V21.729H925.626ZM936.017 17.0171V16.2928C936.017 12.5545 934.355 10.9346 931.984 10.9346C929.273 10.9346 927.682 13.2165 927.682 16.4798C927.682 19.595 929.195 21.877 932.346 21.877C933.67 21.877 934.757 21.5421 935.458 21.2305L935.356 19.4237C934.812 19.8209 933.953 20.2726 932.708 20.2726C930.715 20.2726 929.872 19.1511 929.872 17.0094L936.017 17.0171ZM933.874 15.5374H929.864C929.88 13.5904 930.684 12.4689 931.921 12.4689C933.228 12.4689 933.874 13.5047 933.874 15.5374ZM951.451 11.4953C951.451 10.1636 951.049 9.10437 950.293 8.38007C949.513 7.63241 948.489 7.23521 946.992 7.23521H943.131V21.7212H945.4V15.8489H946.763C949.836 15.8489 951.451 14.2757 951.451 11.4953ZM946.432 9.00313C948.213 9.00313 949.143 9.78973 949.143 11.5732C949.143 13.1698 948.363 14.0888 946.409 14.0888H945.4V9.00313H946.432ZM961.22 16.3941C961.22 12.5545 959.203 10.9346 956.682 10.9346C954.161 10.9346 952.144 12.5545 952.144 16.3941C952.144 20.296 954.161 21.877 956.682 21.877C959.203 21.8692 961.22 20.296 961.22 16.3941ZM958.951 16.3941C958.951 18.6137 958.36 20.257 956.682 20.257C955.004 20.257 954.413 18.6137 954.413 16.3941C954.413 14.1745 955.004 12.5545 956.682 12.5545C958.36 12.5545 958.951 14.1745 958.951 16.3941ZM969.469 18.6527C969.469 17.3676 968.689 16.6823 967.389 15.9502L966.443 15.4284C965.498 14.9066 964.931 14.5561 964.931 13.8474C964.931 13.0997 965.459 12.6013 966.546 12.6013C967.428 12.6013 968.161 12.8115 968.752 13.0608L968.854 11.3162C968.413 11.1449 967.507 10.919 966.38 10.919C964.198 10.919 962.788 12.3676 962.788 13.972C962.788 15.4907 963.647 16.1916 964.97 16.838L966.105 17.3988C967.074 17.8738 967.365 18.3567 967.365 18.9175C967.365 19.743 966.632 20.1869 965.498 20.1869C964.45 20.1869 963.505 19.7508 962.898 19.4393L962.772 21.3084C963.442 21.6199 964.513 21.8692 965.734 21.8692C968.145 21.8692 969.469 20.5452 969.469 18.6527ZM976.354 21.5576V19.9377C976.079 20.0623 975.748 20.1869 975.306 20.1869C974.526 20.1869 974.172 19.7897 974.172 18.6293V12.7337H976.354V11.0748H974.172V8.25546L971.99 8.89409V11.0748H970.272V12.7337H971.99V19.0732C971.99 21.1293 972.974 21.877 974.739 21.877C975.369 21.8692 975.952 21.729 976.354 21.5576Z" fill="#B7B8B9"/>
<path d="M912.264 41.0358C911.571 41.9626 910.405 43.5826 909.696 44.5249C909.333 45.0078 908.687 45.8801 910.838 45.8801H922.159C922.159 45.8801 923.987 43.4268 925.515 41.3707C927.595 38.5748 925.697 32.7726 918.26 32.7726H888.96L883.879 39.595H911.563C912.965 39.595 912.95 40.1246 912.264 41.0358ZM903.945 47.5623C901.794 47.5623 902.44 46.69 902.802 46.2072C903.511 45.2648 904.693 43.6604 905.386 42.7336C906.072 41.8146 906.088 41.2928 904.685 41.2928H892.033L881.83 55H906.71C914.927 55 919.504 49.4782 920.915 47.5623H903.945ZM920.135 55H934.733L940.264 47.5623H925.673C925.665 47.5623 920.135 55 920.135 55ZM957.793 32.7726L952.191 40.2882H945.676L951.27 32.7726H936.687L926.926 45.8801H962.622L972.384 32.7726H957.793ZM941.241 55H955.831L961.37 47.5623H946.779C946.771 47.5623 941.241 55 941.241 55ZM861 50.4984V52.0794H881.326L882.5 50.4984H861ZM884.69 47.5623H861V49.1433H883.508L884.69 47.5623ZM861 55H879.152L880.318 53.4268H861V55ZM998.579 52.0794H1020V50.4984H999.753L998.579 52.0794ZM996.404 55H1020V53.4268H997.57L996.404 55ZM1001.94 47.5623L1000.76 49.1433H1020V47.5623H1001.94ZM982.83 45.8801L992.591 32.7726H977.134C977.126 32.7726 967.365 45.8801 967.365 45.8801H982.83ZM966.112 47.5623C966.112 47.5623 965.049 49.0031 964.529 49.6963C962.693 52.1417 964.316 55 970.296 55H993.726L999.264 47.5623H966.112Z" fill="#B7B8B9"/>
</g>
<g clip-path="url(#clip3_7_329)">
<path fill-rule="evenodd" clip-rule="evenodd" d="M43 133.768H51.2991V141.962H43V133.768ZM67.8922 133.768H76.1912V141.962H67.8922V133.768ZM92.7843 133.768H101.082V141.962H92.7843V133.768Z" fill="#B7B8B9"/>
<path fill-rule="evenodd" clip-rule="evenodd" d="M112.762 146.936C112.762 152.38 113.71 153.257 119.638 153.316V155.598H99.483V153.316C105.412 153.257 106.359 152.38 106.359 146.936V117.032C99.542 117.149 95.5699 121.596 94.9772 129.73L92.7842 129.381L93.2 115.102H125.921L126.336 129.381L124.142 129.73C123.551 121.597 119.52 117.149 112.762 117.032V146.936Z" fill="#B7B8B9"/>
<path fill-rule="evenodd" clip-rule="evenodd" d="M117.972 133.768H126.271V141.962H117.972V133.768ZM142.642 118.426C142.642 117.125 142.564 116.651 142.261 116.35C142.032 116.124 141.501 115.976 140.919 115.976H140.59V115.175H146.591C149.376 115.175 151.327 115.976 152.822 117.75C154.112 119.276 154.798 121.226 154.798 123.475C154.798 126.052 153.935 128.276 152.34 129.802C150.923 131.202 149.049 131.851 146.591 131.851H140.59V131.052H140.919C141.501 131.052 142.032 130.901 142.261 130.677C142.564 130.375 142.642 129.901 142.642 128.601V118.426ZM144.972 128.701C144.972 130.602 145.276 130.953 147.047 130.953C150.695 130.953 152.089 128.902 152.089 123.475C152.089 118.2 150.645 116.05 147.099 116.05C146.161 116.05 145.58 116.225 145.276 116.549C145.022 116.849 144.971 117.149 144.971 118.2L144.972 128.701ZM158.822 126.025C158.845 129.676 159.709 131.228 161.708 131.228C163.076 131.228 163.963 130.502 164.847 128.652L165.609 129.052C164.521 131.228 163.202 132.203 161.304 132.203C158.366 132.203 156.466 129.802 156.466 126.025C156.466 122.526 158.391 120.001 161.048 120.001C163.81 120.001 165.634 122.325 165.761 126.025H158.822ZM163.404 125.151C163.429 122.477 162.593 120.876 161.176 120.876C159.758 120.876 158.872 122.527 158.845 125.151H163.404ZM175.406 129.278C174.548 131.229 173.382 132.103 171.736 132.103C170.621 132.103 169.76 131.678 169.278 130.877C168.796 130.078 168.645 129.302 168.645 127.426V123.127C168.645 121.476 168.416 121.127 167.353 121.127H167.076V120.351L170.773 120.177V128.077C170.773 129.153 170.849 129.651 171.078 130.128C171.279 130.628 171.787 130.954 172.344 130.954C173.202 130.954 174.015 130.403 174.547 129.402C175.027 128.553 175.205 127.653 175.205 126.227V123.127C175.205 121.476 174.976 121.127 173.915 121.127H173.532V120.351L177.333 120.177V129.052C177.333 130.701 177.56 131.078 178.626 131.078H178.902V131.853L175.406 132.029V129.278ZM183.509 128.127C183.509 129.153 183.56 129.602 183.689 130.079C183.865 130.679 184.347 131.054 184.927 131.054C185.889 131.054 186.473 130.029 186.473 128.251V127.903H187.308V128.377C187.308 130.827 186.293 132.102 184.294 132.102C183.331 132.102 182.547 131.801 182.092 131.251C181.535 130.602 181.383 129.876 181.383 128.126V121.201H179.558V120.5C181.762 119.975 182.496 118.975 182.801 116.024H183.509V120.349H186.93V121.2H183.509V128.127ZM195.591 123.978H194.83C194.4 121.852 193.437 120.827 191.866 120.827C190.777 120.827 189.969 121.577 189.969 122.576C189.969 123.526 190.475 123.978 192.072 124.478C193.69 125.002 194.376 125.302 194.934 125.728C195.843 126.428 196.275 127.303 196.275 128.427C196.275 130.577 194.706 132.103 192.474 132.103C191.462 132.103 190.879 131.901 189.639 131.177C189.556 131.122 189.462 131.088 189.362 131.077C189.183 131.077 189.033 131.251 188.931 131.577L188.855 131.852H188.146V127.628H188.855C189.182 128.801 189.436 129.429 189.84 129.952C190.475 130.802 191.435 131.301 192.474 131.301C193.639 131.301 194.502 130.427 194.502 129.278C194.502 128.553 194.121 127.903 193.463 127.501C192.905 127.152 192.88 127.152 191.235 126.601C189.207 125.951 188.27 124.878 188.27 123.25C188.27 121.4 189.662 120.101 191.69 120.101C192.501 120.101 193.359 120.35 194.07 120.776C194.222 120.851 194.347 120.902 194.451 120.902C194.603 120.902 194.754 120.701 194.83 120.351H195.591V123.978H195.591ZM206.705 128.927C205.794 131.177 204.503 132.203 202.553 132.203C199.641 132.203 197.64 129.704 197.64 126.053C197.64 122.501 199.768 120.002 202.805 120.002C204.908 120.002 206.553 121.427 206.553 123.229C206.553 124.152 205.945 124.803 205.111 124.803C204.377 124.803 203.821 124.226 203.821 123.452C203.821 122.753 204.326 122.177 205.009 122.177C205.111 122.177 205.161 122.177 205.263 122.251C204.884 121.375 204.049 120.875 203.034 120.875C201.084 120.875 200.097 122.6 200.097 126.052C200.097 129.576 201.035 131.251 202.958 131.251C204.226 131.251 205.187 130.403 205.896 128.601L206.705 128.927ZM215.797 124.401C215.797 122.952 215.723 122.375 215.418 121.926C215.139 121.427 214.684 121.176 214.151 121.176C213.315 121.176 212.53 121.727 212.05 122.677C211.593 123.603 211.415 124.577 211.415 126.3V129.052C211.415 130.728 211.644 131.077 212.707 131.077H213.111V131.852H207.591V131.077H207.997C209.06 131.077 209.287 130.701 209.287 129.052V117.95C209.287 116.301 209.06 115.951 207.997 115.951H207.718V115.175L211.415 115V122.424C212.226 120.8 213.213 120.101 214.683 120.101C215.747 120.101 216.609 120.476 217.116 121.175C217.747 122.049 217.925 122.851 217.925 125.026V129.052C217.925 130.728 218.154 131.077 219.217 131.077H219.494V131.852H215.797V124.401ZM223.059 126.025C223.086 129.676 223.946 131.228 225.949 131.228C227.315 131.228 228.202 130.502 229.091 128.652L229.848 129.052C228.761 131.228 227.443 132.203 225.543 132.203C222.606 132.203 220.706 129.802 220.706 126.025C220.706 122.526 222.631 120.001 225.291 120.001C228.052 120.001 229.875 122.325 230 126.025H223.059ZM227.644 125.151C227.667 122.477 226.834 120.876 225.415 120.876C223.997 120.876 223.109 122.527 223.086 125.151H227.644ZM147.858 152.4C147.858 153.724 147.934 154.176 148.239 154.474C148.491 154.7 148.999 154.849 149.578 154.849H150.164V155.65H143.226V154.849H143.806C144.39 154.849 144.893 154.7 145.151 154.474C145.452 154.176 145.53 153.724 145.53 152.4V139.774H144.997C143.504 139.774 142.288 140.573 141.706 141.948C141.376 142.698 141.224 143.449 141.097 144.799L140.364 144.749L140.491 138.972H152.977L153.077 144.749L152.319 144.799C151.837 141.148 150.697 139.774 148.241 139.774H147.86V152.4H147.858ZM156.616 149.826C156.639 153.475 157.503 155.025 159.502 155.025C160.87 155.025 161.757 154.301 162.643 152.452L163.403 152.849C162.313 155.025 160.996 156 159.098 156C156.16 156 154.258 153.598 154.258 149.826C154.258 146.324 156.183 143.801 158.842 143.801C161.603 143.801 163.426 146.125 163.555 149.826H156.616ZM161.2 148.95C161.223 146.274 160.386 144.673 158.969 144.673C157.552 144.673 156.665 146.324 156.64 148.95H161.2ZM168.616 152.848C168.616 154.524 168.845 154.875 169.909 154.875H170.315V155.649H164.792V154.875H165.198C166.259 154.875 166.488 154.525 166.488 152.848V141.749C166.488 140.099 166.259 139.75 165.198 139.75H164.921V138.973L168.616 138.798V152.848ZM173.858 149.826C173.883 153.475 174.744 155.025 176.744 155.025C178.112 155.025 179 154.301 179.887 152.452L180.647 152.849C179.557 155.025 178.24 156 176.34 156C173.402 156 171.504 153.598 171.504 149.826C171.504 146.324 173.429 143.801 176.086 143.801C178.846 143.801 180.672 146.125 180.796 149.826H173.858ZM178.442 148.95C178.467 146.274 177.631 144.673 176.213 144.673C174.795 144.673 173.907 146.324 173.884 148.95H178.442ZM190.52 155.649L186.874 149.849L185.86 150.725V152.848C185.86 154.524 186.087 154.875 187.151 154.875H187.632V155.649H182.035V154.875H182.441C183.504 154.875 183.731 154.501 183.731 152.848V141.749C183.731 140.099 183.504 139.75 182.441 139.75H182.162V138.973L185.859 138.798V149.524L189.279 146.625C189.734 146.225 190.013 145.799 190.013 145.474C190.013 145.099 189.683 144.923 188.922 144.923H188.543V144.149H193.533V144.923H193.279C192.545 144.923 192.215 145.099 191.176 146.024L188.392 148.474L191.453 153.3C192.214 154.501 192.696 154.875 193.507 154.875H193.707V155.649L190.52 155.649ZM205.054 149.899C205.054 153.549 203.002 156 199.911 156C196.849 156 194.797 153.55 194.797 149.925C194.797 146.199 196.849 143.801 199.987 143.801C203.002 143.8 205.054 146.274 205.054 149.899ZM197.834 146.098C197.431 146.998 197.253 148.174 197.253 149.848C197.253 153.449 198.113 155.2 199.911 155.2C201.71 155.2 202.596 153.45 202.596 149.899C202.596 148.175 202.418 146.974 202.015 146.098C201.583 145.148 200.798 144.597 199.889 144.597C199.051 144.598 198.238 145.199 197.834 146.098ZM220.068 148.625C220.068 147.024 219.966 146.198 219.74 145.749C219.461 145.249 219.006 144.975 218.448 144.975C217.739 144.975 217.104 145.424 216.676 146.225C216.244 147.025 216.143 147.649 216.143 149.725V152.849C216.143 154.525 216.372 154.876 217.433 154.876H217.79V155.65H214.015V149.001C214.015 146.876 213.964 146.375 213.661 145.8C213.384 145.274 212.927 144.976 212.344 144.976C211.633 144.976 211.002 145.425 210.596 146.226C210.191 147.05 210.091 147.774 210.091 149.726V152.85C210.091 154.552 210.294 154.877 211.381 154.877H211.736V155.651H206.265V154.877H206.669C207.708 154.877 207.962 154.476 207.962 152.85V146.927C207.962 145.326 207.708 144.926 206.669 144.926H206.392V144.151L209.936 143.975V146.026C210.417 144.751 211.609 143.901 212.901 143.901C214.321 143.901 215.23 144.6 215.865 146.178C216.596 144.627 217.612 143.901 219.006 143.901C220.094 143.901 221.056 144.4 221.562 145.226C222.044 145.952 222.197 146.778 222.197 148.353V152.851C222.197 154.504 222.426 154.878 223.489 154.878H223.764V155.652H220.069V148.625L220.068 148.625Z" fill="#B7B8B9"/>
</g>
<g clip-path="url(#clip4_7_329)">
<path d="M473.202 123.917C476.136 123.972 478.473 124.577 480.157 125.787C481.842 126.998 482.711 129.199 482.711 132.501V147.139H476.626V133.216C476.626 131.07 476.191 129.805 475.267 129.474C473.909 129.089 472.55 128.924 471.137 129.034C470.866 129.089 470.54 129.089 470.268 129.089H469.344V147.139H463.15V129.034H456.086V147.083H450V123.917H473.202Z" fill="#B7B8B9"/>
<path d="M514.064 126.888H507.435C504.121 126.888 502.653 127.603 501.458 129.639C500.752 130.795 500.534 131.841 500.426 133.987H514.064V136.958H500.371C500.371 138.554 500.752 140.095 501.458 141.471C502.599 143.452 504.121 144.167 507.218 144.167H514.064V147.139H506.566C502.545 147.139 500.317 146.258 498.578 143.892C497.057 141.801 496.405 139.435 496.405 136.023C496.405 131.29 497.763 127.879 500.426 125.787C502.056 124.522 504.229 123.972 507.652 123.972H514.119L514.064 126.888Z" fill="#B7B8B9"/>
<path d="M531.398 147.083H527.051L517.216 123.917H521.454L529.279 143.617L537.212 123.917H541.179L531.398 147.083Z" fill="#B7B8B9"/>
<path d="M558.676 126.888H551.992C548.677 126.888 547.21 127.603 546.015 129.639C545.309 130.795 545.091 131.841 544.983 133.987H558.676V136.958H544.983C544.983 138.554 545.309 140.095 546.069 141.471C547.21 143.452 548.732 144.167 551.829 144.167H558.676V147.139H551.177C547.102 147.139 544.928 146.258 543.189 143.892C541.668 141.801 541.016 139.435 541.016 136.023C541.016 131.29 542.374 127.879 545.037 125.787C546.667 124.522 548.841 123.972 552.264 123.972H558.676V126.888Z" fill="#B7B8B9"/>
<path d="M565.794 147.083H562.262V123.917H566.609L578.292 142.461V123.917H581.824V147.083H577.585L565.794 128.594V147.083Z" fill="#B7B8B9"/>
<path d="M585.355 126.888V123.917H604.863V126.888H596.984V147.139H593.289V126.888H585.355Z" fill="#B7B8B9"/>
<path d="M607.471 144.112H617.36C619.099 144.112 620.023 143.947 620.729 143.507C621.707 142.901 622.251 141.746 622.142 140.59C622.142 138.829 621.436 137.619 620.077 137.178C618.936 136.958 617.795 136.903 616.654 136.958H614.752C611.927 136.958 610.134 136.628 608.938 135.803C607.417 134.812 606.602 133.051 606.602 130.96C606.547 128.484 607.797 126.173 609.916 124.962C611.166 124.247 612.742 123.972 615.513 123.972H624.913V126.943H615.513C613.502 126.943 612.579 127.108 611.818 127.603C610.949 128.264 610.46 129.364 610.514 130.465C610.514 132.776 611.927 133.712 615.513 133.712H616.871C620.892 133.712 622.523 134.042 623.772 135.087C625.185 136.243 626 138.279 626 140.59C626 143.287 624.805 145.378 622.686 146.423C621.381 147.028 620.077 147.249 616.871 147.249H607.417V144.112H607.471Z" fill="#B7B8B9"/>
<path d="M491.242 121H487.819V150H491.242V121Z" fill="#B7B8B9"/>
</g>
<g clip-path="url(#clip5_7_329)">
<path fill-rule="evenodd" clip-rule="evenodd" d="M859.879 115.5C862.771 115.565 872.924 115.823 872.795 124.094C872.731 130.427 867.783 132.042 866.691 132.818C867.076 133.593 867.462 133.722 867.847 133.852C869.004 134.239 874.723 135.596 875.879 141.8C876.907 135.015 882.498 130.944 887.253 130.879C892.265 130.815 896.441 134.692 895.349 139.28C894.835 139.409 887.895 139.28 880.442 139.28C878.771 139.603 879.028 141.024 879.028 141.024C878.964 151.299 886.739 154.013 894.899 153.883C899.911 153.883 899.397 152.333 899.59 150.329L899.526 136.178C899.59 134.756 897.277 133.658 897.277 133.658V132.947C899.654 132.301 902.739 130.298 902.739 130.298C902.739 130.298 902.931 130.492 903.124 130.621C902.803 133.206 902.931 134.498 903.445 134.821C906.144 131.332 911.028 130.944 913.148 131.008C916.49 131.138 918.61 133.335 918.931 137.276V150.846C919.124 153.883 921.245 153.754 922.915 153.883L922.851 154.788C917.582 154.53 911.992 154.788 911.992 154.788V153.883C913.598 153.69 915.654 154.013 915.59 150.265C915.59 144.514 915.59 138.698 915.59 138.698C915.526 137.018 914.498 133.141 909.036 133.206C906.915 133.206 903.06 134.692 902.996 138.117C902.996 144.385 902.996 150.717 902.996 150.717C903.06 153.625 904.666 153.69 906.594 153.883C906.594 154.4 906.594 154.853 906.594 154.853C902.931 154.336 891.815 155.047 886.61 155.499C881.341 155.564 876.779 151.88 875.879 145.612C874.658 152.526 867.59 154.659 861.679 154.853C856.538 154.659 849.084 154.724 846.514 154.853C846.514 154.4 846.514 153.883 846.514 153.883C848.313 153.69 851.076 153.819 851.076 149.554L851.141 121.639C851.269 116.275 847.671 117.18 846 116.922V116.017C848.313 115.758 855.381 115.5 859.879 115.5ZM859.365 116.792C856.924 116.792 854.996 116.986 854.996 118.925V131.525C854.932 133.012 855.638 133.335 859.237 133.141C866.626 132.753 868.361 129.651 868.361 124.805C868.426 118.796 863.157 116.792 859.365 116.792ZM967.188 130.233C967.317 130.298 967.509 130.427 967.509 130.427V133.27C967.509 133.27 967.509 134.239 968.023 134.562C970.979 131.719 973.935 130.75 975.092 130.815C978.112 131.202 977.148 135.079 974.963 135.015C973.485 134.95 972.907 133.335 970.594 133.787C967.831 134.369 967.509 137.406 967.509 138.827C967.509 144.385 967.509 149.942 967.509 149.942C967.509 153.69 968.666 153.754 972.329 153.819C972.329 153.819 972.329 154.271 972.264 154.724C969.051 154.207 956.2 154.917 954.979 155.111C949.389 156.08 944.891 154.077 942.899 150.394C942.899 150.394 940.007 155.37 932.875 155.37C927.542 155.305 922.016 151.816 921.951 143.997C921.951 140.637 923.429 131.849 934.931 130.815C936.795 130.621 940.522 131.396 940.971 131.784C942.192 132.689 941.485 135.661 940.779 135.532C939.943 135.403 938.722 132.236 933.903 132.236C927.991 132.236 925.1 137.729 925.228 142.123C925.485 148.972 929.662 152.72 935.574 152.72C939.558 152.785 942.321 150.006 942.513 149.748C941.935 148.455 941.357 146.969 941.228 143.738C941.1 138.569 944.827 130.815 952.666 130.75C959.092 130.75 961.341 136.113 960.57 139.086C959.734 139.344 945.598 139.15 945.598 139.15C944.248 139.215 944.248 140.572 944.248 140.572C944.377 142.381 943.092 154.013 960.184 153.754C964.296 153.69 964.104 152.139 964.168 149.683C964.168 149.683 964.168 143.351 964.168 137.018C964.168 134.498 962.562 133.981 961.79 133.464L961.726 132.882C962.176 132.753 965.774 131.202 967.188 130.233ZM952.538 132.172C950.546 132.107 947.333 133.076 945.534 135.726C944.634 137.083 944.762 138.052 945.726 138.181C948.104 138.181 950.481 138.181 950.481 138.181C953.501 138.181 957.357 138.569 957.357 136.307C957.357 134.046 955.493 132.172 952.538 132.172ZM887.253 132.172C885.325 132.107 882.176 133.076 880.377 135.726C879.478 137.083 879.67 138.052 880.57 138.181C882.948 138.181 885.325 138.181 885.325 138.181C888.281 138.181 891.943 138.569 892.072 136.307C892.201 133.852 890.273 132.172 887.253 132.172ZM859.365 134.304C856.281 134.304 854.996 134.562 854.932 136.049V147.551C854.996 150.523 856.538 153.56 861.165 153.56C866.948 153.496 871.51 151.557 871.381 144.385C871.381 141.154 869.775 134.304 859.365 134.304Z" fill="#B7B8B9"/>
</g>
<defs>
<clipPath id="clip0_7_329">
<rect width="241" height="36" fill="white" transform="translate(0 9.5)"/>
</clipPath>
<clipPath id="clip1_7_329">
<rect width="180" height="23" fill="white" transform="translate(461 16)"/>
</clipPath>
<clipPath id="clip2_7_329">
<rect width="159" height="55" fill="white" transform="translate(861)"/>
</clipPath>
<clipPath id="clip3_7_329">
<rect width="187" height="41" fill="white" transform="translate(43 115)"/>
</clipPath>
<clipPath id="clip4_7_329">
<rect width="176" height="29" fill="white" transform="translate(450 121)"/>
</clipPath>
<clipPath id="clip5_7_329">
<rect width="131" height="40" fill="white" transform="translate(846 115.5)"/>
</clipPath>
</defs>
</svg>
