<svg width="62" height="131" viewBox="0 0 62 131" fill="none" xmlns="http://www.w3.org/2000/svg">
<path d="M31.0405 79.6352L30.9953 79.6311H30.9499C30.1704 79.6311 29.3924 79.3585 28.7901 78.8566L2.54012 56.9816L2.54016 56.9816L2.5312 56.9743C1.0989 55.8084 0.907113 53.6862 2.10674 52.2124C3.27132 50.7816 5.39027 50.5887 6.86391 51.784L30.3086 71.3796L30.9384 71.906L31.5775 71.3909L55.0275 52.4909L55.0312 52.4879C56.4765 51.3115 58.6043 51.5393 59.7931 52.9999L59.8092 53.0196L59.8263 53.0385C61.0656 54.4118 60.943 56.5367 59.5487 57.7949L59.5297 57.8121L59.5195 57.8223C59.5149 57.8259 59.5052 57.8334 59.4874 57.8467L59.4805 57.8519C59.4445 57.8788 59.374 57.9316 59.2964 58.0035L33.1112 79.0825C32.4682 79.5131 31.7469 79.6994 31.0405 79.6352Z" fill="#EBEAED" stroke="white" stroke-width="2"/>
</svg>
