<svg width="43" height="37" viewBox="0 0 43 37" fill="none" xmlns="http://www.w3.org/2000/svg">
<path d="M21.6667 36.0641C21.1042 36.0641 20.5833 35.8558 20.1875 35.46L4 19.2516C-0.229166 14.9808 -0.229166 8.10579 4 3.83496C8.27083 -0.415039 15.1458 -0.415039 19.4167 3.83496L21.6667 6.08496L23.9167 3.83496C28.1875 -0.415039 35.0625 -0.415039 39.3333 3.83496C43.5625 8.10579 43.5625 14.9808 39.3333 19.2516L23.1458 35.46C22.75 35.8558 22.2292 36.0641 21.6667 36.0641ZM11.7083 4.81413C9.91667 4.81413 8.20833 5.50163 6.95833 6.77246C4.33333 9.39746 4.33333 13.6683 6.95833 16.2933L21.6667 31.0225L36.375 16.2933C39 13.6683 39 9.39746 36.375 6.77246C33.7083 4.25163 29.5417 4.25163 26.875 6.77246L23.1458 10.5225C22.3333 11.335 21.0208 11.335 20.2083 10.5225L16.4792 6.77246C15.2292 5.50163 13.5208 4.81413 11.7292 4.81413H11.7083Z" fill="#020035"/>
</svg>
