<svg width="43" height="37" viewBox="0 0 43 37" fill="none" xmlns="http://www.w3.org/2000/svg">
<path d="M21.3332 36.0641C20.7707 36.0641 20.2498 35.8558 19.854 35.46L3.6665 19.2516C-0.562663 14.9808 -0.562663 8.10579 3.6665 3.83496C7.93734 -0.415039 14.8123 -0.415039 19.0832 3.83496L21.3332 6.08496L23.5832 3.83496C27.854 -0.415039 34.729 -0.415039 38.9998 3.83496C43.229 8.10579 43.229 14.9808 38.9998 19.2516L22.8123 35.46C22.4165 35.8558 21.8957 36.0641 21.3332 36.0641ZM11.3748 4.81413C9.58317 4.81413 7.87484 5.50163 6.62484 6.77246C3.99984 9.39746 3.99984 13.6683 6.62484 16.2933L21.3332 31.0225L36.0415 16.2933C38.6665 13.6683 38.6665 9.39746 36.0415 6.77246C33.3748 4.25163 29.2082 4.25163 26.5415 6.77246L22.8123 10.5225C21.9998 11.335 20.6873 11.335 19.8748 10.5225L16.1457 6.77246C14.8957 5.50163 13.1873 4.81413 11.3957 4.81413H11.3748Z" fill="#020035"/>
</svg>
