<svg width="42" height="37" viewBox="0 0 42 37" fill="none" xmlns="http://www.w3.org/2000/svg">
<path d="M20.9999 36.0641C20.4374 36.0641 19.9166 35.8558 19.5208 35.46L3.33325 19.2516C-0.895915 14.9808 -0.895915 8.10579 3.33325 3.83496C7.60408 -0.415039 14.4791 -0.415039 18.7499 3.83496L20.9999 6.08496L23.2499 3.83496C27.5207 -0.415039 34.3958 -0.415039 38.6666 3.83496C42.8958 8.10579 42.8958 14.9808 38.6666 19.2516L22.4791 35.46C22.0833 35.8558 21.5624 36.0641 20.9999 36.0641ZM11.0416 4.81413C9.24992 4.81413 7.54159 5.50163 6.29159 6.77246C3.66659 9.39746 3.66659 13.6683 6.29159 16.2933L20.9999 31.0225L35.7083 16.2933C38.3333 13.6683 38.3333 9.39746 35.7083 6.77246C33.0416 4.25163 28.8749 4.25163 26.2083 6.77246L22.4791 10.5225C21.6666 11.335 20.3541 11.335 19.5416 10.5225L15.8124 6.77246C14.5624 5.50163 12.8541 4.81413 11.0624 4.81413H11.0416Z" fill="#020035"/>
</svg>
