<svg width="846" height="657" viewBox="0 0 846 657" fill="none" xmlns="http://www.w3.org/2000/svg">
<mask id="path-1-inside-1_7_388" fill="white">
<path fill-rule="evenodd" clip-rule="evenodd" d="M3.10951 656.134C1.42012 654.168 0.614746 651.598 0.614746 648.801V32.2844C0.614746 14.4897 15.0109 0.064209 32.7695 0.064209H947.516C965.274 0.064209 979.67 14.4897 979.67 32.2844V648.801C979.67 651.614 978.882 654.164 977.176 656.134"/>
</mask>
<path d="M4.79126 654.688C3.51329 653.201 2.83256 651.177 2.83256 648.801H-1.60307C-1.60307 652.018 -0.673064 655.136 1.42776 657.579L4.79126 654.688ZM2.83256 648.801V32.2844H-1.60307V648.801H2.83256ZM2.83256 32.2844C2.83256 15.7103 16.24 2.28202 32.7695 2.28202V-2.1536C13.7818 -2.1536 -1.60307 13.2691 -1.60307 32.2844H2.83256ZM32.7695 2.28202H947.516V-2.1536H32.7695V2.28202ZM947.516 2.28202C964.045 2.28202 977.453 15.7103 977.453 32.2844H981.888C981.888 13.2691 966.503 -2.1536 947.516 -2.1536V2.28202ZM977.453 32.2844V648.801H981.888V32.2844H977.453ZM977.453 648.801C977.453 651.2 976.785 653.197 975.5 654.681L978.852 657.586C980.979 655.131 981.888 652.027 981.888 648.801H977.453Z" fill="#020035" mask="url(#path-1-inside-1_7_388)"/>
</svg>
