<svg width="28" height="21" viewBox="0 0 28 21" fill="none" xmlns="http://www.w3.org/2000/svg">
<g clip-path="url(#clip0_7_486)">
<path d="M22.3992 3.59125C21.1368 0.966604 17.8806 -0.185093 15.1269 1.0171V6.56806V6.56983C14.2778 4.80571 13.6927 3.5896 13.6927 3.5896C13.3424 2.85944 12.8357 2.24477 12.2299 1.76224C11.4102 1.10995 10.4077 0.698795 9.35465 0.579166C8.3858 0.468031 7.3752 0.602289 6.42159 1.01722H6.42022V1.01769V7.78488C5.60067 7.13246 4.59824 6.72119 3.54514 6.60168C2.5758 6.49043 1.56458 6.62481 0.610596 7.04009L5.60277 17.41C6.86513 20.0324 10.1211 21.1841 12.875 19.9821C12.8751 19.9821 12.8752 19.9821 12.8752 19.982L12.8751 19.9816V14.4307C12.8752 14.4308 12.8752 14.4309 12.8752 14.431C13.7243 16.1953 14.3094 17.4113 14.3094 17.4113C14.6597 18.1414 15.1664 18.756 15.7722 19.2385C16.5918 19.8909 17.5942 20.3022 18.6473 20.4217C19.6166 20.5329 20.6279 20.3986 21.5819 19.9833L21.5814 19.9821H21.5817V19.9816V13.2162C21.5819 13.2162 21.5819 13.2163 21.5819 13.2163C22.4014 13.8687 23.4016 14.2799 24.4568 14.3995C25.4262 14.5108 26.4374 14.3764 27.3891 13.961L22.3992 3.59125ZM12.4346 19.0667L7.88304 9.61212C7.62162 9.06718 7.27261 8.58677 6.86067 8.17739V1.93284C7.82914 3.9453 10.2105 8.89351 12.0236 12.661L12.4346 13.5154V19.0667ZM21.1413 19.0664V19.0677C20.0977 16.8991 17.4128 11.3202 15.5673 7.48522V7.48345V1.9326L20.1168 11.389C20.38 11.9339 20.7292 12.4141 21.1413 12.8236V19.0664Z" fill="black"/>
</g>
<defs>
<clipPath id="clip0_7_486">
<rect width="28" height="21" fill="white"/>
</clipPath>
</defs>
</svg>
